<svg width="20" height="20" viewBox="0 0 20 20" fill="none" xmlns="http://www.w3.org/2000/svg">
<path d="M3.14255 17.6288C9.20778 18.915 17.8618 18.1477 17.8618 13.634V3.86144C17.8618 3.28299 17.7985 2.75444 17.6599 2.30654M3.14255 17.6288C1.66133 17.3147 0.811484 15.6053 0.906402 13.9067C1.05583 11.2324 0.964501 7.85944 0.837775 5.1792C0.731905 2.94007 2.60759 0.969283 4.59207 1.04172C8.13845 1.17116 12.8144 1.00189 15.6595 0.837827C16.7388 0.775591 17.3673 1.36152 17.6599 2.30654M3.14255 17.6288C3.80505 17.8936 4.57656 18.1566 5.41683 18.3882M17.6599 2.30654C19.2582 3.48512 19.2752 10.3492 19.0838 13.634C17.3733 20.0161 10.2552 19.7218 5.41683 18.3882M17.6599 2.30654C18.1345 3.75991 18.9338 8.06011 18.3335 13.634C17.7332 19.2078 9.47227 19.1259 5.41683 18.3882M8.60811 6.63743C9.47876 6.60865 11.5571 6.4076 13.188 5.83664C13.2555 5.81301 13.3538 5.92046 13.3298 5.9911C12.9653 7.06529 12.6738 9.48378 12.7135 11.0043M13.0332 6.24889C11.4411 8.07948 7.88621 11.7722 5.8335 12.5" stroke="black" stroke-linecap="round"/>
</svg>
