<svg width="32" height="32" viewBox="0 0 32 32" fill="none" xmlns="http://www.w3.org/2000/svg">
<path d="M2.10904 10.3538C6.95265 14.9554 11.0031 21.0958 16.6668 20.4942M29.1669 10.2815C24.7171 16.4306 21.1109 19.3484 18.0002 20.2329M11.0648 8.27145C10.6338 7.15473 10.289 4.78729 12.3578 4.25126C14.9439 3.58123 19.4695 4.25126 19.4695 6.26136V8.94148M18.0002 20.2329C19.8071 20.1553 24.6789 18.1333 29.7106 10.6667M18.0002 20.2329C17.5455 20.3622 17.1014 20.4481 16.6668 20.4942M29.7106 10.6667C28.9692 9.71309 27.7752 9.61151 26.5809 9.61151C23.4777 9.61151 11.4958 8.71804 5.89281 8.2713C-0.572225 7.60127 2.01415 17.6519 1.36729 24.3521C0.981083 28.3523 3.9533 27.7022 7.83232 27.7022C11.7113 27.7022 23.9949 28.3722 27.8739 27.7022C31.753 27.0322 30.4599 18.3219 30.4599 13.6317C30.4599 12.7195 30.3453 12.0132 30.144 11.4667M29.7106 10.6667C29.8807 10.8855 30.027 11.1491 30.144 11.4667M16.6668 20.4942C19.4294 20.4184 25.9924 18.5067 30.144 11.4667" stroke="black" stroke-linecap="round"/>
</svg>
