<svg width="48" height="48" viewBox="0 0 48 48" fill="none" xmlns="http://www.w3.org/2000/svg">
<path d="M3.16332 15.5307C10.4287 22.4331 16.5044 31.6437 25 30.7414M43.7502 15.4223C37.0754 24.6459 31.6661 29.0226 27 30.3494M16.597 12.4072C15.9505 10.7321 15.4333 7.18093 18.5365 6.37689C22.4155 5.37185 29.204 6.37689 29.204 9.39203V13.4122M27 30.3494C29.7104 30.2329 37.0181 27.2 44.5656 16M27 30.3494C26.318 30.5433 25.6519 30.6721 25 30.7414M44.5656 16C43.4535 14.5696 41.6625 14.4173 39.8711 14.4173C35.2163 14.4173 17.2435 13.0771 8.83897 12.407C-0.858581 11.4019 3.02098 26.4779 2.05068 36.5281C1.47138 42.5284 5.92971 41.5533 11.7482 41.5533C17.5668 41.5533 35.9921 42.5584 41.8107 41.5533C47.6292 40.5483 45.6897 27.4829 45.6897 20.4475C45.6897 19.0793 45.5178 18.0198 45.2157 17.2M44.5656 16C44.8208 16.3282 45.0402 16.7237 45.2157 17.2M25 30.7414C29.1438 30.6276 38.9883 27.76 45.2157 17.2" stroke="black" stroke-linecap="round"/>
</svg>
