<svg width="48" height="48" viewBox="0 0 48 48" fill="none" xmlns="http://www.w3.org/2000/svg">
<path d="M28 30H24M28 30C28 29.6993 27.9336 29.414 27.8147 29.1582M28 30C28 30.2583 27.951 30.5051 27.8619 30.7317M26 32V28M26 32C26.2517 32 26.4925 31.9535 26.7143 31.8687M26 32C25.755 32 25.5204 31.956 25.3035 31.8754M24 30C24 30.2929 24.063 30.5711 24.1761 30.8218M24 30C24 29.6993 24.0664 29.414 24.1853 29.1582M26 28C25.755 28 25.5204 28.044 25.3035 28.1246M26 28C26.245 28 26.4796 28.044 26.6965 28.1246M12 28H8M12 28C12 28.2575 11.9514 28.5036 11.8627 28.7296M12 28C12 27.7425 11.9514 27.4964 11.8627 27.2704M10 30V26M10 30C9.73848 30 9.48869 29.9498 9.25973 29.8585M10 30C10.2962 30 10.5774 29.9356 10.8303 29.82M8 28C8 27.7137 8.06016 27.4415 8.16852 27.1952M8 28C8 28.2575 8.04865 28.5036 8.13725 28.7296M10 26C10.2962 26 10.5774 26.0644 10.8303 26.18M10 26C9.75965 26 9.5292 26.0424 9.31572 26.1201M20 14V10M20 14C19.4932 14 19.0304 13.8115 18.678 13.5008M20 14C20.2771 14 20.5411 13.9436 20.781 13.8418M18 12L21.9997 12.0361M18 12C18 11.7317 18.0528 11.4758 18.1486 11.242M18 12C18 12.3096 18.0704 12.6028 18.196 12.8645M20 10C20.3643 10 20.7058 10.0974 21 10.2676M20 10C19.7763 10 19.5612 10.0367 19.3604 10.1044M29.2539 18.6224C30.6691 13.6661 28.8776 5.60679 19.2428 5.60679C9.01822 5.60679 6.99932 14.774 7.52055 19.9571C7.59009 20.6485 7.1281 21.3041 6.46201 21.564C4.16728 22.4595 1.29761 24.8361 2.15534 29.6317C3.14215 35.149 9.41874 35.5771 12.6814 34.975M29.2539 18.6224L12.9987 34.4812C12.8281 34.6477 12.7076 34.856 12.6629 35.0865C12.0186 38.4059 12.4601 44.8332 18.3175 45.8416C23.4309 46.722 25.9476 43.7508 26.8811 41.4037C27.141 40.7504 27.8256 40.2994 28.5456 40.37C34.0318 40.9078 43.7627 38.8566 43.7627 28.421C43.7627 18.5959 35.0294 16.8713 29.7804 18.3161C29.5796 18.3714 29.4009 18.479 29.2539 18.6224ZM31.085 15.7049C32.9427 14.2773 36.401 9.53768 35.3721 2M32.5763 17.8688C33.9746 16.072 38.617 12.7271 46 13.7222M24.6347 31.4615L27.3928 28.5647M24.6347 31.4615C24.8263 31.6405 25.053 31.7823 25.3035 31.8754M24.6347 31.4615C24.4425 31.2819 24.2857 31.0647 24.1761 30.8218M27.3928 28.5647C27.1956 28.3733 26.9591 28.2222 26.6965 28.1246M27.3928 28.5647C27.5673 28.7341 27.711 28.9349 27.8147 29.1582M27.3928 31.4353L24.6347 28.5385M27.3928 31.4353C27.2001 31.6224 26.9698 31.771 26.7143 31.8687M27.3928 31.4353C27.5955 31.2385 27.7567 30.9992 27.8619 30.7317M24.6347 28.5385C24.8263 28.3595 25.053 28.2177 25.3035 28.1246M24.6347 28.5385C24.4478 28.7132 24.2944 28.9233 24.1853 29.1582M25.3035 28.1246L26.7143 31.8687M25.3035 31.8754L26.6965 28.1246M27.8147 29.1582L24.1761 30.8218M24.1853 29.1582L27.8619 30.7317M21.9997 12.0361C21.9999 12.0241 22 12.0121 22 12C22 11.719 21.942 11.4515 21.8374 11.2089M21.9997 12.0361C21.9949 12.3039 21.9376 12.5589 21.8374 12.7911M21.5212 10.7015L18.678 13.5008M21.5212 10.7015C21.3738 10.529 21.1976 10.3819 21 10.2676M21.5212 10.7015C21.6505 10.8528 21.7576 11.0236 21.8374 11.2089M18.678 13.5008C18.4776 13.3241 18.3129 13.108 18.196 12.8645M18.678 10.4992L21.3835 13.4442M18.678 10.4992C18.4488 10.7012 18.2663 10.9549 18.1486 11.242M18.678 10.4992C18.8749 10.3256 19.1062 10.1902 19.3604 10.1044M21.3835 13.4442C21.5754 13.2604 21.7307 13.0387 21.8374 12.7911M21.3835 13.4442C21.2097 13.6108 21.0059 13.7463 20.781 13.8418M21.8374 12.7911L18.1486 11.242M18.196 12.8645L21 10.2676M19.3604 10.1044L20.781 13.8418M19.3604 13.8418L21.8374 11.2089M11.5023 26.6797L8.57777 29.4061M11.5023 26.6797C11.3171 26.4692 11.0884 26.2979 10.8303 26.18M11.5023 26.6797C11.6545 26.8527 11.7772 27.0522 11.8627 27.2704M8.57777 29.4061C8.7699 29.6005 9.00158 29.7556 9.25973 29.8585M8.57777 29.4061C8.38832 29.2145 8.23731 28.9849 8.13725 28.7296M8.67425 26.5025L11.4222 29.4061M8.67425 26.5025C8.86038 26.3376 9.07748 26.2069 9.31572 26.1201M8.67425 26.5025C8.45936 26.6929 8.28574 26.9288 8.16852 27.1952M11.4222 29.4061C11.2527 29.5776 11.0524 29.7186 10.8303 29.82M11.4222 29.4061C11.6117 29.2145 11.7627 28.9849 11.8627 28.7296M10.8303 26.18L9.25973 29.8585M10.8303 29.82L9.31572 26.1201M8.16852 27.1952L11.8627 28.7296M11.8627 27.2704L8.13725 28.7296M38 26C38 27.1046 37.1046 28 36 28C34.8954 28 34 27.1046 34 26C34 24.8954 34.8954 24 36 24C37.1046 24 38 24.8954 38 26ZM20 22C20 23.1046 19.1046 24 18 24C16.8954 24 16 23.1046 16 22C16 20.8954 16.8954 20 18 20C19.1046 20 20 20.8954 20 22ZM22 38C22 39.1046 21.1046 40 20 40C18.8954 40 18 39.1046 18 38C18 36.8954 18.8954 36 20 36C21.1046 36 22 36.8954 22 38Z" stroke="black" stroke-linecap="round"/>
</svg>
