<svg width="32" height="32" viewBox="0 0 32 32" fill="none" xmlns="http://www.w3.org/2000/svg">
<path d="M6.3552 7.40724C7.0298 8.09453 7.98196 8.52286 9.0372 8.52286C11.0827 8.52286 12.7409 6.91342 12.7409 4.92808C12.7409 2.94275 11.0827 1.33331 9.0372 1.33331C7.6881 1.33331 6.50748 2.03341 5.85995 3.07971C5.29119 3.99874 4.43807 4.92808 3.3335 4.92808C2.22893 4.92808 1.3335 5.79718 1.3335 6.86926V28.6677C1.3335 29.7717 2.25557 30.6666 3.393 30.6666H28.6073C29.7448 30.6666 30.6668 29.7717 30.6668 28.6677V6.92701C30.6668 5.82303 29.7448 4.92808 28.6073 4.92808H26.815M20.2813 7.40724C20.9559 8.09453 21.9081 8.52285 22.9633 8.52285C25.0088 8.52285 26.667 6.91342 26.667 4.92808C26.667 2.94275 25.0088 1.33331 22.9633 1.33331C21.6355 1.33331 20.4709 2.01149 19.8171 3.03043C19.2158 3.96755 18.3375 4.92808 17.2001 4.92808H12.8892M4.29644 12.5489H30.5187M11.8344 19.8675C11.9265 18.2199 15.1559 16.6891 15.6468 19.4518C15.9475 21.144 14.2641 22.9704 11.7577 24.4637C11.2589 24.761 11.4231 25.5452 11.998 25.5407L15.9535 25.5099M18.3028 19.0692L19.7951 17.5811C20.1386 17.2385 20.7283 17.4352 20.7221 17.8902L20.7221 25.5407" stroke="black" stroke-linecap="round"/>
</svg>
