<svg width="20" height="20" viewBox="0 0 20 20" fill="none" xmlns="http://www.w3.org/2000/svg">
<path d="M12.5114 19.1666C9.75926 15.6988 6.66303 14.3294 5.7192 13.5933C4.44903 12.6025 5.19001 12.001 5.7192 11.824C6.33669 11.6471 7.53633 11.8771 8.45373 12.7972C9.37114 13.7172 9.8945 13.3574 10.0415 13.0625C10.1004 12.9151 10.1827 12.2309 10.0415 10.6739C9.90043 9.11699 7.30705 8.19695 7.30705 7.13526C7.30705 5.93215 8.24797 6.04428 8.71838 6.25063C9.60052 6.63403 11.4529 7.71922 11.8057 8.99305C11.8899 9.55585 12.2456 10.8575 12.9946 11.5615M14.011 10.6738C13.7758 9.99561 13.1096 8.70987 11.91 9.34684M15.1579 11.2931C15.1579 10.6444 15.2108 9.36461 13.6583 9.43543M18.3332 14.4779C17.6276 13.6817 16.8336 12.5316 16.6572 11.2931C16.5358 10.4408 15.6281 9.84822 15.0694 9.87773M4.04746 5.41741C4.09901 5.79933 4.82482 7.42545 5.15594 6.51011C5.55122 5.41741 5.92716 4.28569 7.61889 3.21426M9.99406 4.42286C9.97659 4.04629 9.92794 3.70373 9.85231 3.3932C9.75763 3.00443 9.62067 2.66586 9.44974 2.37358C8.04835 -0.0225503 4.36289 0.693288 2.95949 2.37358C2.40881 3.03347 1.25469 4.70698 1.81712 6.79887C2.16969 8.11017 3.31351 8.94645 4.50741 9.12892C4.81623 9.17612 5.1284 9.17958 5.43109 9.1362" stroke="black" stroke-linecap="round"/>
</svg>
