<svg width="48" height="48" viewBox="0 0 48 48" fill="none" xmlns="http://www.w3.org/2000/svg">
<path d="M30.0277 46C23.4226 37.6772 15.9917 34.3907 13.7265 32.6239C10.6781 30.2461 12.4564 28.8023 13.7265 28.3777C15.2085 27.953 18.0876 28.5051 20.2894 30.7132C22.4911 32.9213 23.7472 32.0578 24.1 31.3501C24.2413 30.9963 24.4388 29.3542 24.1 25.6174C23.7614 21.8808 17.5373 19.6727 17.5373 17.1247C17.5373 14.2372 19.7955 14.5063 20.9245 15.0016C23.0416 15.9217 27.4874 18.5262 28.334 21.5834C28.5361 22.9341 29.3898 26.058 31.1874 27.7477M33.6269 25.6172C33.0624 23.9895 31.4635 20.9037 28.5844 22.4325M36.3793 27.1035C36.3793 25.5467 36.5064 22.4751 32.7804 22.6451M44 34.7471C42.3065 32.8362 40.4011 30.076 39.9777 27.1035C39.6863 25.0579 37.5078 23.6358 36.1671 23.7066M9.71429 13.0018C9.83802 13.9184 11.58 17.8211 12.3747 15.6243C13.3233 13.0018 14.2256 10.2857 18.2857 7.71428M23.9861 10.6149C23.9442 9.71115 23.8274 8.88901 23.6459 8.14374C23.4187 7.21068 23.09 6.3981 22.6798 5.69665C19.3164 -0.0540721 10.4713 1.66394 7.10317 5.69665C5.78153 7.28038 3.01165 11.2968 4.36148 16.3173C5.20764 19.4645 7.95282 21.4715 10.8182 21.9095C11.5594 22.0227 12.3086 22.031 13.035 21.9269" stroke="black" stroke-linecap="round"/>
</svg>
