<svg width="20" height="20" viewBox="0 0 20 20" fill="none" xmlns="http://www.w3.org/2000/svg">
<path d="M8.78147 18.993C9.17953 18.9339 18.8164 17.6484 18.415 8.68421C18.3781 7.86059 18.2754 7.11137 18.1157 6.43219M8.78147 18.993C14.0635 18.644 16.7476 16.5749 17.9488 14.0951M8.78147 18.993C8.14241 19.0879 7.48335 19.0803 6.83135 18.9771M18.1157 6.43219C17.9158 5.58188 17.6267 4.84137 17.2658 4.20212M18.1157 6.43219C18.8353 8.42541 19.212 11.4873 17.9488 14.0951M17.2658 4.20212C14.3071 -1.03859 6.52622 0.527057 3.56331 4.20212C2.40068 5.6454 -0.0359439 9.30563 1.15149 13.8809C1.89584 16.7489 4.31074 18.578 6.83135 18.9771M17.2658 4.20212C18.3916 5.78365 20.0251 9.4873 18.6286 12.8461M17.9488 14.0951C18.2283 13.6876 18.4525 13.2696 18.6286 12.8461M6.83135 18.9771C10.1644 19.5569 17.1902 19.1425 18.6286 12.8461M6.66683 7.49998C7.57592 9.94378 9.89348 13.1425 10.3032 12.3873C11.3638 10.4324 12.8789 8.96632 13.3335 7.49998" stroke="black" stroke-linecap="round"/>
</svg>
