<svg width="32" height="32" viewBox="0 0 32 32" fill="none" xmlns="http://www.w3.org/2000/svg">
<path d="M9.61669 3.91526C8.46597 3.49445 6.04944 3.53653 5.58915 7.07133C5.01379 11.4898 5.58943 22.8515 5.58915 26.0075C5.58897 28.0036 6.16395 29.1637 9.04155 29.7948C11.9184 30.4258 26.5581 32.3119 26.3024 27.2699C25.7263 15.9082 29.1793 3.2838 22.2749 3.91501M11.5002 19.2669C11.6517 20.3648 13.7856 25.0393 14.7591 22.408C15.9212 19.2669 17.0265 16.0136 22.0002 12.9336M12.691 1.92074C15.0768 0.788475 19.9735 1.31976 19.9735 3.2838C19.9735 5.80865 19.9735 6.43996 17.672 6.43996C15.3705 6.43996 13.0691 7.07117 12.4937 5.80874C11.9654 4.64956 11.9222 2.95805 12.3641 2.20052C12.4381 2.07359 12.5582 1.98374 12.691 1.92074Z" stroke="black" stroke-linecap="round"/>
</svg>
