<svg width="20" height="20" viewBox="0 0 20 20" fill="none" xmlns="http://www.w3.org/2000/svg">
<path d="M1.43116 6.66667C1.89454 6.07068 2.64078 6.0072 3.38718 6.0072C5.32669 6.0072 12.8154 5.44878 16.3173 5.16956C20.3579 4.7508 18.7414 11.0325 19.1457 15.22C19.3871 17.7202 17.5294 17.3139 15.1051 17.3139C12.6807 17.3139 5.00344 17.7327 2.57906 17.3139C0.154668 16.8951 0.962797 11.4512 0.962797 8.51981C0.962797 7.94969 1.03443 7.50827 1.16028 7.16667C1.23341 6.96819 1.32484 6.80341 1.43116 6.66667ZM1.43116 6.66667C4.57595 11.3333 7.62082 12.5971 8.75016 12.6456C9.03433 12.7264 9.31188 12.7801 9.5835 12.8089C13.1233 13.1849 15.6549 9.34711 18.6821 6.47114" stroke="black" stroke-linecap="round"/>
</svg>
