<svg width="32" height="32" viewBox="0 0 32 32" fill="none" xmlns="http://www.w3.org/2000/svg">
<path d="M5.02798 28.2062C14.7324 30.2641 28.5787 29.0364 28.5787 21.8144V6.17838C28.5787 5.25286 28.4776 4.40717 28.2557 3.69054M5.02798 28.2062C2.65803 27.7036 1.29828 24.9686 1.45014 22.2507C1.68923 17.972 1.5431 12.5752 1.34034 8.2868C1.17095 4.70418 4.17204 1.55093 7.34721 1.66682C13.0214 1.87393 20.5029 1.6031 25.0552 1.3406C26.782 1.24102 27.7876 2.1785 28.2557 3.69054M5.02798 28.2062C6.08798 28.6298 7.3224 29.0506 8.66683 29.4211M28.2557 3.69054C30.8131 5.57627 30.8402 16.5589 30.534 21.8144C27.7972 32.0259 16.4083 31.555 8.66683 29.4211M28.2557 3.69054C29.0151 6.01593 30.2939 12.8963 29.3335 21.8144C28.3731 30.7326 15.1555 30.6015 8.66683 29.4211M14.9723 13.916C15.077 13.9011 17.6119 13.5767 17.5063 11.3146C17.4966 11.1067 17.4696 10.9177 17.4276 10.7463M14.9723 13.916C16.3617 13.8279 17.0677 13.3058 17.3836 12.68M14.9723 13.916C14.8042 13.9399 14.6308 13.938 14.4593 13.912M17.4276 10.7463C17.375 10.5317 17.2989 10.3448 17.204 10.1835M17.4276 10.7463C17.6168 11.2493 17.7159 12.0219 17.3836 12.68M17.204 10.1835C16.4258 8.861 14.3791 9.25609 13.5997 10.1835C13.2939 10.5477 12.653 11.4714 12.9653 12.626C13.1611 13.3497 13.7963 13.8113 14.4593 13.912M17.204 10.1835C17.5001 10.5826 17.9298 11.5172 17.5625 12.3648M17.3836 12.68C17.4572 12.5772 17.5161 12.4717 17.5625 12.3648M14.4593 13.912C15.3361 14.0583 17.1841 13.9537 17.5625 12.3648M19.5759 16.9547L19.7644 17.3164C19.9923 17.7537 20.0958 18.2609 19.8874 18.7071M19.5759 16.9547C19.1674 16.171 18.3325 15.676 17.4192 15.676H13.1661C12.2528 15.676 11.4179 16.171 11.0094 16.9547L10.9169 17.1322C10.6309 17.6809 10.561 18.3288 10.8617 18.8703C11.7797 20.5228 13.3668 21.2297 14.9723 21.2721M19.5759 16.9547C19.995 18.1218 19.6611 20.6191 14.9723 21.2721M19.8874 18.7071C19.1579 20.269 17.0497 21.3269 14.9723 21.2721M19.8874 18.7071C19.6842 19.7423 18.4167 21.7046 14.9723 21.2721" stroke="black" stroke-linecap="round"/>
</svg>
