<svg width="500" height="500" viewBox="0 0 500 500" fill="none" xmlns="http://www.w3.org/2000/svg">
<mask id="mask0_40_25466" style="mask-type:luminance" maskUnits="userSpaceOnUse" x="40" y="20" width="421" height="460">
<path d="M40.104 20.3125H460.417V479.687H40.104V20.3125Z" fill="white"/>
</mask>
<g mask="url(#mask0_40_25466)">
<path fill-rule="evenodd" clip-rule="evenodd" d="M245.538 75.9547C245.538 75.9547 249.911 66.3777 254.231 61.3292C258.546 56.2751 261.392 55.6298 267.086 54.9896C272.779 54.3495 297.215 63.26 302.083 70.4219C306.951 77.5839 295.438 92.8344 295.438 92.8344L295.381 92.9589C285.638 88.7485 275.683 85.048 265.557 81.873C257.739 79.385 251.102 77.4172 245.538 75.9547ZM264.553 58.3891C264.954 58.2292 265.409 58.424 265.569 58.8245C265.729 59.2251 265.534 59.6797 265.134 59.8402C263.484 60.5001 260.831 61.9865 258.341 64.2735C255.854 66.5579 253.571 69.6037 252.578 73.3761C252.469 73.7933 252.041 74.0423 251.624 73.9329C251.207 73.823 250.958 73.3954 251.067 72.9782C252.158 68.8339 254.649 65.5428 257.284 63.1225C259.916 60.7047 262.732 59.1183 264.553 58.3891Z" fill="black" fill-opacity="0.15"/>
<path fill-rule="evenodd" clip-rule="evenodd" d="M316.585 207.773L267.149 196.869L262.008 199.076L260.311 213.025L260.139 213.004C260.139 213.004 257.111 213.827 252.701 211.349C250.97 210.377 250.23 209.049 249.524 207.785C248.433 205.829 247.425 204.022 242.962 203.911C239.284 203.82 236.781 205.959 234.414 207.98C232.052 209.997 229.827 211.898 226.707 211.349C220.461 210.251 218.832 205.993 218.832 205.993L218.801 205.988C219.176 204.072 219.389 202.99 219.389 202.99C219.389 202.99 120.189 196.38 131.208 77.8261C136.144 76.5083 141.201 75.7011 146.302 75.4162C154.507 74.938 162.731 75.9646 170.567 78.4443C173.484 79.3349 176.301 80.5245 178.973 81.9938C175.111 164.819 244.086 163.138 246.043 163.07C245.986 160.239 245.981 154.207 246.881 152.26C247.735 150.413 253.897 149.944 261.21 149.892C264.083 149.871 267.139 149.913 270.121 149.965C274.884 150.048 280.354 150.283 285.116 150.642C290.925 151.074 295.687 151.688 296.848 152.448C298.373 153.437 297.697 158.536 297.202 161.296L297.52 161.354C338.826 164.64 354.791 190.665 359.963 217.348C365.183 244.292 359.38 271.915 357.532 277.453C354.524 286.482 348.392 284.009 346.269 282.817C346.013 282.679 345.766 282.524 345.529 282.354L319.526 273.777C319.526 273.777 310.703 271.939 313.686 261.534C315.273 255.991 316.476 250.833 317.35 246.029C318.102 241.966 318.644 237.866 318.974 233.746C319.818 222.935 318.802 214.383 316.923 207.68L316.585 207.773ZM136.453 82.9005C133.264 111.001 143.446 173.186 209.641 197.182L209.109 198.651C141.971 174.314 131.667 111.222 134.901 82.7245L136.453 82.9005Z" fill="black"/>
<path d="M45.3062 445.104C45.3062 445.104 43.1567 452.152 48.6687 462.806C54.1806 473.461 85.5869 478.03 85.5869 478.03V478.035C94.3416 476.369 101.873 471.269 105.246 461.151C106.875 456.264 109.795 450.439 113.579 444.079L113.084 443.788C113.084 443.788 99.9072 445.13 95.9603 427.855C91.3906 437.547 88.4656 444.214 87.6119 445.355C84.3067 449.764 57.8504 443.154 57.8504 443.154C57.8504 443.154 50.2145 441.244 45.3062 445.104Z" fill="black" fill-opacity="0.15"/>
<path d="M213.177 236.125L213.635 236.151C213.635 236.151 215.316 240.408 221.78 241.506C228.245 242.605 230.999 233.886 238.598 234.068C246.196 234.251 244.11 239.029 248.674 241.506C253.239 243.984 256.372 243.161 256.372 243.161L256.633 243.193L258.465 228.145L258.095 228.098C258.095 228.098 255.014 228.921 250.538 226.443C246.062 223.966 248.112 219.188 240.648 219C233.184 218.813 230.478 227.546 224.133 226.443C217.788 225.34 216.138 221.088 216.138 221.088L215.93 221.051C215.074 225.625 214.132 230.768 213.177 236.125Z" fill="black"/>
<path d="M294.335 107.751C296.026 108.282 315.258 114.199 317.361 108.812C318.751 105.263 309.741 99.2875 295.382 92.9583C285.64 88.7484 275.685 85.0489 265.557 81.8745C257.739 79.3864 251.103 77.4187 245.539 75.9562C229.747 71.8026 222.59 71.6625 221.591 74.962C220.243 79.4229 233.474 84.3463 233.474 84.3463L233.515 84.6276C236.246 84.3172 239 84.2666 241.739 84.4765C241.739 84.4765 294.642 92.5911 292.867 98.2229C292.227 100.263 292.752 103.891 293.596 107.754L294.335 107.751Z" fill="black" fill-opacity="0.15"/>
<path d="M284.565 98.2812L284.841 124.316L285.091 124.311C285.091 124.311 289.562 130.921 292.315 128.35C294.943 125.898 291.394 120.553 291.055 120.058C291.368 120.47 294.324 124.238 296.235 122.962C297.525 122.104 295.079 114.567 293.595 107.754C292.752 103.892 292.227 100.264 292.866 98.2229C294.641 92.5911 241.739 84.4765 241.739 84.4765C238.999 84.2666 236.245 84.3171 233.515 84.6276C231.484 84.9192 229.762 85.502 229.336 86.5901C228.143 89.6192 239.443 91.0869 239.443 91.0869C239.443 91.0869 228.877 100.919 237.143 104.042C244.492 106.816 244.877 95.4479 244.867 92.8828V92.8776C244.867 92.5599 244.862 92.3776 244.862 92.3776C244.862 92.3776 265.435 88.2395 284.231 98.2854L284.565 98.2812Z" fill="black"/>
<path d="M260.139 213.005C260.139 213.005 257.109 213.832 252.701 211.349C248.292 208.867 250.312 204.094 242.961 203.912C235.611 203.73 232.952 212.454 226.706 211.349C220.461 210.245 218.831 205.994 218.831 205.994L218.8 205.989C218.191 209.127 217.15 214.504 215.932 221.052L216.141 221.088C216.141 221.088 217.791 225.34 224.136 226.444C230.48 227.547 233.187 218.819 240.651 219.001C248.114 219.182 246.059 223.961 250.54 226.444C255.022 228.927 258.098 228.099 258.098 228.099L258.467 228.146L260.31 213.026L260.139 213.005Z" fill="black" fill-opacity="0.15"/>
<path d="M311.042 309.498C290.316 305.948 228.695 294.076 211.373 289.313C212.5 317.675 230.283 330.786 252.701 338.073C277.559 346.156 299.055 347.993 314.67 341.013C317.881 339.577 321.999 337.896 326.725 336.277C318.324 322.579 311.042 309.503 311.042 309.503L311.042 309.498Z" fill="black" fill-opacity="0.15"/>
<path d="M314.67 341.014C299.055 347.993 277.559 346.157 252.701 338.073C230.283 330.786 212.498 317.675 211.373 289.314C210.832 289.163 210.332 289.022 209.88 288.887C209.88 288.887 167.705 316.89 164.274 321.298C163.561 322.219 164.358 325.118 166.117 329.147C169.303 336.449 175.632 347.453 181.825 357.082C188.602 367.627 195.218 376.532 197.341 377.141C202.489 378.615 251.716 347.016 251.716 347.016C251.716 347.016 272.536 391.106 277.194 399.434C279.781 404.061 304.382 396.056 323.923 386.349C330.878 382.887 337.191 379.218 341.641 375.814C347.184 371.593 349.839 367.798 347.242 365.383C342.318 360.803 334.094 348.3 326.724 336.278C321.998 337.896 317.881 339.578 314.67 341.014Z" fill="black" fill-opacity="0.15"/>
<path d="M426.354 450.134C440.319 456.744 451.889 451.237 453.545 438.928C455.2 426.618 426.208 391.724 426.208 391.724C423.039 392.359 417.839 393.369 412.639 394.285C410.169 394.697 407.669 394.908 405.165 394.915V394.92C410.682 404.243 404.15 413.827 402.557 415.917C408.772 416.333 412.639 416.333 412.639 416.333C421.947 422.943 422.192 439.843 426.354 450.134Z" fill="black" fill-opacity="0.15"/>
<path d="M297.52 161.355C338.826 164.641 354.791 190.666 359.963 217.344C365.183 244.29 359.38 271.913 357.532 277.448C354.524 286.479 348.392 284.007 346.269 282.813C346.013 282.674 345.766 282.519 345.529 282.35L319.526 273.772C319.526 273.772 310.703 271.935 313.686 261.53C315.273 255.987 316.476 250.829 317.35 246.025C318.102 241.961 318.644 237.861 318.974 233.742C319.818 222.931 318.802 214.379 316.923 207.676C312.187 190.77 301.928 185.596 301.928 185.596" stroke="black" stroke-linecap="round" stroke-linejoin="round"/>
<path d="M246.084 163.069H246.043C244.086 163.136 175.111 164.818 178.973 81.9922C176.301 80.5224 173.484 79.3333 170.567 78.4427C162.731 75.9636 154.507 74.938 146.302 75.4167C141.201 75.7011 136.143 76.5089 131.207 77.8266" stroke="black" stroke-linecap="round" stroke-linejoin="round"/>
<path d="M317.849 300.479C317.849 300.479 320.546 310.274 317.849 310.519C317.465 310.555 314.997 310.18 311.042 309.498C290.316 305.949 228.695 294.077 211.373 289.314C210.832 289.163 210.331 289.022 209.879 288.888C208.245 288.403 207.209 288.013 206.897 287.742C204.82 285.941 209.078 259.115 213.179 236.127C214.132 230.771 215.074 225.629 215.933 221.054C217.151 214.506 218.192 209.129 218.801 205.991C219.176 204.075 219.389 202.993 219.389 202.993C219.389 202.993 120.189 196.381 131.207 77.8292" stroke="black" stroke-linecap="round" stroke-linejoin="round"/>
<path d="M311.042 309.504C311.042 309.504 318.323 322.577 326.724 336.278C334.094 348.301 342.318 360.803 347.242 365.383C349.839 367.798 347.184 371.593 341.641 375.814C337.191 379.218 330.878 382.887 323.923 386.349C304.384 396.056 279.781 404.061 277.194 399.434C272.536 391.106 251.719 347.016 251.719 347.016C251.719 347.016 202.491 378.615 197.344 377.141C195.22 376.532 188.605 367.627 181.828 357.082C175.634 347.453 169.305 336.449 166.12 329.147C164.36 325.118 163.564 322.22 164.277 321.298C167.707 316.89 209.882 288.887 209.882 288.887" stroke="black" stroke-linecap="round" stroke-linejoin="round"/>
<path d="M296.848 163.079C296.848 163.079 297.01 162.361 297.202 161.294C297.697 158.534 298.373 153.435 296.848 152.446C295.687 151.686 290.925 151.072 285.116 150.64C280.354 150.281 274.884 150.046 270.121 149.962C267.139 149.91 264.083 149.869 261.21 149.89C253.897 149.942 247.735 150.41 246.881 152.258C245.98 154.205 245.986 160.237 246.043 163.068C246.059 163.984 246.085 164.567 246.085 164.567" stroke="black" stroke-linecap="round" stroke-linejoin="round"/>
<path d="M285.117 150.635L284.841 124.314L284.565 98.2791L284.539 95.864" stroke="black" stroke-linecap="round" stroke-linejoin="round"/>
<path d="M244.867 92.876C244.864 92.8625 244.863 92.8484 244.862 92.8344" stroke="black" stroke-linecap="round" stroke-linejoin="round"/>
<path d="M261.21 149.885C261.21 149.885 263.412 140.412 260.659 138.205C257.906 135.998 251.472 136.186 249.089 129.388C246.757 122.752 244.951 94.2187 244.867 92.8812" stroke="black" stroke-linecap="round" stroke-linejoin="round"/>
<path d="M291.029 120.019C291.039 120.03 291.048 120.042 291.055 120.055C291.368 120.467 294.324 124.235 296.235 122.959C297.525 122.101 295.079 114.564 293.595 107.751C292.752 103.889 292.227 100.261 292.866 98.2198C294.641 92.5881 241.739 84.4735 241.739 84.4735C238.999 84.2636 236.245 84.3141 233.515 84.6245C231.484 84.9162 229.762 85.499 229.336 86.587C228.143 89.6162 239.443 91.0839 239.443 91.0839C239.443 91.0839 228.877 100.916 237.143 104.039C244.492 106.813 244.877 95.4448 244.867 92.8797V92.8745C244.867 92.5568 244.862 92.3745 244.862 92.3745C244.862 92.3745 265.435 88.2365 284.231 98.2823" stroke="black" stroke-linecap="round" stroke-linejoin="round"/>
<path d="M285.09 124.309C285.09 124.309 289.561 130.919 292.315 128.348C294.943 125.896 291.393 120.551 291.055 120.056" stroke="black" stroke-linecap="round" stroke-linejoin="round"/>
<path d="M294.215 107.715C294.215 107.715 294.256 107.73 294.335 107.751C296.026 108.282 315.258 114.199 317.361 108.812C318.751 105.263 309.741 99.2875 295.382 92.9583C285.64 88.7484 275.685 85.0489 265.557 81.8745C257.739 79.3864 251.103 77.4187 245.539 75.9562C229.747 71.8026 222.59 71.6625 221.591 74.962C220.243 79.4229 233.474 84.3463 233.474 84.3463" stroke="black" stroke-linecap="round" stroke-linejoin="round"/>
<path d="M295.438 92.8344C295.438 92.8344 306.951 77.5839 302.083 70.4219C297.215 63.26 272.779 54.3495 267.086 54.9896C261.392 55.6298 258.544 56.2751 254.229 61.3292C249.915 66.3834 245.537 75.9547 245.537 75.9547" stroke="black" stroke-linecap="round" stroke-linejoin="round"/>
<path d="M155.093 63.1349C155.094 63.1281 155.096 63.1208 155.098 63.1141C155.244 62.1828 159.777 32.9106 154.359 31.6611C148.847 30.3914 146.276 74.9604 146.276 74.9604" stroke="black" stroke-linecap="round" stroke-linejoin="round"/>
<path d="M162.318 64.6031C162.318 64.5943 162.32 64.5854 162.323 64.5771C162.531 63.5776 168.621 34.2124 165.135 33.0093C161.638 31.8015 155.292 62.1828 155.1 63.1135" stroke="black" stroke-linecap="round" stroke-linejoin="round"/>
<path d="M169.422 68.8916L169.427 68.8864C169.583 68.3557 178.077 39.7284 173.95 37.9065C169.859 36.1008 162.577 63.6088 162.322 64.5771" stroke="black" stroke-linecap="round" stroke-linejoin="round"/>
<path d="M170.505 78.5005C170.505 78.5005 170.526 78.4797 170.567 78.4432C171.593 77.5375 185.235 65.3583 182.523 62.6463C179.744 59.8672 169.698 68.6474 169.428 68.887" stroke="black" stroke-linecap="round" stroke-linejoin="round"/>
<path d="M346.269 282.818C345.482 285.205 344.429 287.495 343.13 289.647C342.256 291.127 341.241 292.519 340.101 293.805C336.317 298.032 330.638 301.222 322.659 298.303" stroke="black" stroke-linecap="round" stroke-linejoin="round"/>
<path d="M328.811 293.805C327.078 295.686 324.965 297.18 322.613 298.188C321.077 298.851 319.441 299.252 317.772 299.374C314.988 299.572 311.783 298.968 308.305 296.86" stroke="black" stroke-linecap="round" stroke-linejoin="round"/>
<path d="M319.047 291.692C319.047 291.692 314.003 295.455 308.304 296.86H308.298C304.577 297.782 300.574 297.694 297.517 294.904C292.807 290.599 295.987 284.046 295.987 284.046" stroke="black" stroke-linecap="round" stroke-linejoin="round"/>
<path d="M319.526 273.777C319.526 273.777 312.395 277.644 306.644 281.673C305.131 282.713 303.678 283.837 302.293 285.04C300.185 286.915 298.993 288.575 299.726 289.579C303.765 295.091 318.298 282.818 318.298 282.818" stroke="black" stroke-linecap="round" stroke-linejoin="round"/>
<path d="M359.962 217.345L384.228 222.702L386.861 299.156L382.635 302.253L340.106 293.805" stroke="black" stroke-linecap="round" stroke-linejoin="round"/>
<path d="M301.809 284.894L296.036 283.791L252.701 275.494L254.502 260.712L255.662 251.192L256.635 243.193L258.468 228.145L260.31 213.025L262.007 199.076L267.15 196.869L316.585 207.773" stroke="black" stroke-linecap="round" stroke-linejoin="round"/>
<path d="M306.644 281.672L257.905 271.944L267.149 196.869" stroke="black" stroke-linecap="round" stroke-linejoin="round"/>
<path d="M343.13 289.647L386.861 299.156" stroke="black" stroke-linecap="round" stroke-linejoin="round"/>
<path d="M292.289 162.038H251.045" stroke="black" stroke-linecap="round" stroke-linejoin="round"/>
<path d="M341.647 375.819C341.647 375.819 345.478 385.958 368.281 390.365C385.229 393.643 396.882 395.028 405.168 394.914C407.672 394.906 410.172 394.695 412.643 394.284C417.842 393.368 423.042 392.357 426.211 391.723C428.122 391.343 429.298 391.104 429.298 391.104C429.298 391.104 463.1 427.595 458.934 443.517C454.767 459.439 430.52 460.417 426.356 450.131C422.192 439.845 421.948 422.941 412.642 416.329C412.642 416.329 408.774 416.329 402.56 415.912C393.139 415.283 378.315 413.7 363.408 409.715C338.862 403.156 324.148 386.599 323.924 386.345L323.919 386.34" stroke="black" stroke-linecap="round" stroke-linejoin="round"/>
<path d="M402.232 416.339C402.232 416.339 402.357 416.193 402.56 415.917C404.152 413.825 410.685 404.243 405.167 394.921" stroke="black" stroke-linecap="round" stroke-linejoin="round"/>
<path d="M95.96 427.852C109.081 400.032 135.783 347.322 166.116 329.146" stroke="black" stroke-linecap="round" stroke-linejoin="round"/>
<path d="M181.823 357.083C181.823 357.083 134.51 408.83 113.576 444.083C109.793 450.443 106.872 456.268 105.243 461.155C101.871 471.273 94.3389 476.374 85.5842 478.04C66.678 481.642 42.0717 469.248 41.317 456.866C40.942 450.672 42.7535 447.112 45.3035 445.108C50.2118 441.246 57.8478 443.157 57.8478 443.157C57.8478 443.157 84.3061 449.767 87.6092 445.358C88.4629 444.218 91.3879 437.551 95.9577 427.858" stroke="black" stroke-linecap="round" stroke-linejoin="round"/>
<path d="M113.084 443.79C113.084 443.79 99.9074 445.133 95.9605 427.858V427.853" stroke="black" stroke-linecap="round" stroke-linejoin="round"/>
<path d="M268.56 119.468C268.56 119.468 264.058 120.868 263.876 119.02C263.693 117.172 265.803 97.5187 265.803 97.5187C265.803 97.5187 256.434 94.3938 251.567 96.4151" stroke="black" stroke-linecap="round" stroke-linejoin="round"/>
<path d="M260.06 103.947C259.377 103.526 258.591 103.303 257.788 103.303C256.986 103.303 256.199 103.526 255.516 103.947" stroke="black" stroke-linecap="round" stroke-linejoin="round"/>
<path d="M277.559 103.296C277.559 103.296 274.342 100.731 271.683 102.844" stroke="black" stroke-linecap="round" stroke-linejoin="round"/>
<path d="M280.406 127.92C280.406 127.92 277.281 132.147 272.968 131.137" stroke="black" stroke-linecap="round" stroke-linejoin="round"/>
<path d="M362.409 101.069C362.409 104.199 363.336 107.259 365.075 109.862C366.814 112.465 369.285 114.494 372.178 115.692C375.069 116.89 378.251 117.204 381.322 116.593C384.392 115.982 387.212 114.475 389.425 112.261C391.638 110.048 393.146 107.228 393.756 104.158C394.367 101.088 394.053 97.9052 392.855 95.0136C391.657 92.1219 389.628 89.65 387.025 87.9115C384.422 86.1729 381.362 85.2453 378.232 85.2458C376.154 85.2458 374.096 85.6552 372.176 86.45C370.257 87.2453 368.512 88.411 367.043 89.8802C365.574 91.3495 364.409 93.0938 363.613 95.0136C362.818 96.9333 362.409 98.9906 362.409 101.069Z" stroke="black" stroke-linecap="round" stroke-linejoin="round"/>
<path d="M373.881 79.098L370.201 64.4209" stroke="black" stroke-linecap="round" stroke-linejoin="round"/>
<path d="M385.639 121.003L390.412 138.45" stroke="black" stroke-linecap="round" stroke-linejoin="round"/>
<path d="M398.13 109.151L405.479 113.06" stroke="black" stroke-linecap="round" stroke-linejoin="round"/>
<path d="M398.13 94.5468L429.724 87.5671" stroke="black" stroke-linecap="round" stroke-linejoin="round"/>
<path d="M390.411 83.7047L395.923 77.8495" stroke="black" stroke-linecap="round" stroke-linejoin="round"/>
<path d="M359.921 87.5672L353.452 85.2458" stroke="black" stroke-linecap="round" stroke-linejoin="round"/>
<path d="M356.684 108.501L343.021 111.847" stroke="black" stroke-linecap="round" stroke-linejoin="round"/>
<path d="M368.687 121.003L365.064 126.562" stroke="black" stroke-linecap="round" stroke-linejoin="round"/>
<path d="M249.822 254.03C249.822 254.03 214.548 244.203 211.613 279.477C211.33 282.747 211.25 286.033 211.373 289.314C212.5 317.675 230.283 330.786 252.7 338.073C277.559 346.157 299.055 347.994 314.67 341.014C317.881 339.578 321.998 337.896 326.724 336.278C344.978 330.037 372.314 324.801 391.603 338.812" stroke="black" stroke-linecap="round" stroke-linejoin="round"/>
<path d="M392.905 337.953C392.32 338.39 391.808 338.917 391.39 339.516C388.522 343.596 390.479 350.141 395.72 355.552C396.985 356.856 398.371 358.037 399.858 359.081C408.077 364.862 417.601 365.472 421.136 360.45C424.67 355.428 420.881 346.662 412.668 340.884C412.188 340.546 411.705 340.229 411.221 339.932C404.36 335.668 396.902 334.924 392.905 337.953Z" stroke="black" stroke-linecap="round" stroke-linejoin="round"/>
<path d="M260.139 213.005C260.139 213.005 257.109 213.832 252.701 211.349C248.292 208.867 250.312 204.094 242.961 203.912C235.611 203.73 232.952 212.454 226.706 211.349C220.461 210.245 218.831 205.994 218.831 205.994" stroke="black" stroke-linecap="round" stroke-linejoin="round"/>
<path d="M258.098 228.098C258.098 228.098 255.016 228.921 250.54 226.443C246.064 223.966 248.115 219.188 240.651 219C233.187 218.813 230.48 227.546 224.136 226.443C217.791 225.34 216.141 221.088 216.141 221.088" stroke="black" stroke-linecap="round" stroke-linejoin="round"/>
<path d="M256.375 243.162C256.375 243.162 253.236 243.99 248.677 241.507C244.118 239.024 246.205 234.251 238.601 234.069C230.996 233.886 228.243 242.61 221.783 241.507C215.324 240.403 213.638 236.151 213.638 236.151" stroke="black" stroke-linecap="round" stroke-linejoin="round"/>
<path d="M256.865 261.103L257.905 251.552L255.662 251.193L252.701 250.724L251.196 259.911L254.502 260.713L256.126 261.103" stroke="black" stroke-linecap="round" stroke-linejoin="round"/>
<path d="M318.975 233.746C318.975 233.746 313.655 234.007 312.833 238.602C312.021 243.094 317.127 245.905 317.351 246.03H317.356" stroke="black" stroke-linecap="round" stroke-linejoin="round"/>
<path d="M426.21 391.724C426.21 391.724 455.202 426.62 453.546 438.928C451.891 451.235 440.321 456.744 426.356 450.134" stroke="black" stroke-linecap="round" stroke-linejoin="round"/>
<path d="M85.5869 478.032C85.5869 478.032 54.1754 473.462 48.6687 462.808C43.1619 452.154 45.3062 445.106 45.3062 445.106" stroke="black" stroke-linecap="round" stroke-linejoin="round"/>
<path d="M411.221 339.926V339.931C411.21 340.144 410.913 346.167 406.994 350.669C404.702 353.308 401.17 355.426 395.72 355.551" stroke="black" stroke-linecap="round" stroke-linejoin="round"/>
<path d="M392.905 337.954C392.905 337.954 403.429 342.076 406.994 350.669" stroke="black" stroke-linecap="round" stroke-linejoin="round"/>
<path d="M368.665 422.691C361.186 421.954 354.087 419.045 348.242 414.323" stroke="black" stroke-linecap="round" stroke-linejoin="round"/>
<path d="M284.785 380.817L286.01 374.938" stroke="black" stroke-linecap="round" stroke-linejoin="round"/>
<path d="M322.75 355.588L318.341 353.874" stroke="black" stroke-linecap="round" stroke-linejoin="round"/>
<path d="M288.962 335.016L289.772 330.13" stroke="black" stroke-linecap="round" stroke-linejoin="round"/>
<path d="M264.211 313.693L257.592 313.016" stroke="black" stroke-linecap="round" stroke-linejoin="round"/>
<path d="M300.706 319.338L301.44 315.664" stroke="black" stroke-linecap="round" stroke-linejoin="round"/>
<path d="M228.521 346.844L222.349 344.267" stroke="black" stroke-linecap="round" stroke-linejoin="round"/>
<path d="M196.541 355.069C197.479 352.886 197.543 350.427 196.719 348.198" stroke="black" stroke-linecap="round" stroke-linejoin="round"/>
<path d="M187.792 323.728C185.576 323.428 183.321 323.605 181.178 324.248" stroke="black" stroke-linecap="round" stroke-linejoin="round"/>
<path d="M208.95 320.601C209.637 318.85 209.605 316.899 208.862 315.171" stroke="black" stroke-linecap="round" stroke-linejoin="round"/>
<path d="M230.39 303.152L225.617 307.692" stroke="black" stroke-linecap="round" stroke-linejoin="round"/>
<path d="M430.759 348.738C432.221 350.312 433.122 352.325 433.322 354.464C433.522 356.603 433.01 358.747 431.865 360.565" stroke="black" stroke-linecap="round" stroke-linejoin="round"/>
<path d="M377.375 325.211C375.292 323.309 372.778 321.942 370.048 321.229C367.319 320.515 364.458 320.477 361.71 321.116" stroke="black" stroke-linecap="round" stroke-linejoin="round"/>
<path d="M261.768 220.629L262.76 212.793" stroke="black" stroke-linecap="round" stroke-linejoin="round"/>
<path d="M259.801 235.325L260.291 230.426" stroke="black" stroke-linecap="round" stroke-linejoin="round"/>
<path d="M130.592 58.7151C129.705 48.9607 132.713 39.2516 138.958 31.7068" stroke="black" stroke-linecap="round" stroke-linejoin="round"/>
<path d="M124.569 46.2338C124.616 44.4962 125.137 42.8044 126.076 41.3422" stroke="black" stroke-linecap="round" stroke-linejoin="round"/>
<path d="M365.159 205.189C363.117 197.118 359.596 189.495 354.774 182.709" stroke="black" stroke-linecap="round" stroke-linejoin="round"/>
<path d="M200.684 252.698L203.431 234.972C203.663 233.838 203.728 232.676 203.621 231.522" stroke="black" stroke-linecap="round" stroke-linejoin="round"/>
<path d="M119.246 460.066C123.723 446.669 130.392 434.108 138.983 422.895" stroke="black" stroke-linecap="round" stroke-linejoin="round"/>
<path d="M69.9945 445.714C73.2341 451.265 74.5492 457.73 73.7346 464.106" stroke="black" stroke-linecap="round" stroke-linejoin="round"/>
<path d="M61.149 443.892C63.9297 449.587 64.8308 456.017 63.7235 462.256" stroke="black" stroke-linecap="round" stroke-linejoin="round"/>
<path d="M418.621 423.067C420.722 422.32 422.618 421.088 424.154 419.471C425.69 417.854 426.823 415.898 427.462 413.761" stroke="black" stroke-linecap="round" stroke-linejoin="round"/>
<path d="M422.691 434.546C425.387 433.822 427.857 432.428 429.871 430.494C431.884 428.559 433.375 426.147 434.207 423.482" stroke="black" stroke-linecap="round" stroke-linejoin="round"/>
<path d="M309.486 81.9745C310.605 79.7568 311.156 77.2953 311.09 74.812C311.024 72.3282 310.344 69.8995 309.109 67.7438" stroke="black" stroke-linecap="round" stroke-linejoin="round"/>
<path d="M238.99 55.9047L235.681 50.0275" stroke="black" stroke-linecap="round" stroke-linejoin="round"/>
<path d="M234.208 54.8094L240.383 49.9441" stroke="black" stroke-linecap="round" stroke-linejoin="round"/>
<path d="M264.333 34.9665V29.0884" stroke="black" stroke-linecap="round" stroke-linejoin="round"/>
<path d="M268.75 32.3507L261.035 30.8756" stroke="black" stroke-linecap="round" stroke-linejoin="round"/>
<path d="M170.245 197.058C156.305 190.105 145.093 178.686 138.395 164.622" stroke="black" stroke-linecap="round" stroke-linejoin="round"/>
<path d="M399.129 204.671L404.282 198.802" stroke="black" stroke-linecap="round" stroke-linejoin="round"/>
<path d="M405.032 204.363C403.057 202.99 401.532 201.063 400.651 198.824" stroke="black" stroke-linecap="round" stroke-linejoin="round"/>
<path d="M436.491 211.198C443.303 216.315 447.804 224.792 447.052 233.277C446.3 241.761 439.708 249.712 431.283 250.975C428.331 251.418 425.134 251.019 422.726 249.254C420.319 247.488 418.947 244.167 420 241.374C421.551 237.259 427.774 236.467 431.035 239.42C434.295 242.372 434.655 247.607 432.875 251.63C431.096 255.652 427.607 258.656 423.969 261.132C420.332 263.608 416.417 265.72 413.16 268.675C410.467 271.116 408.15 274.59 408.837 278.158C409.592 282.075 413.895 284.548 417.881 284.389C421.867 284.229 425.49 282.038 428.581 279.517" stroke="black" stroke-linecap="round" stroke-linejoin="round"/>
<path d="M438.83 265.665C440.274 264.8 441.453 263.554 442.236 262.065" stroke="black" stroke-linecap="round" stroke-linejoin="round"/>
<path d="M442.914 266.783L439.134 261.345" stroke="black" stroke-linecap="round" stroke-linejoin="round"/>
<path d="M411.295 233.733L407.253 228.589" stroke="black" stroke-linecap="round" stroke-linejoin="round"/>
<path d="M407.89 233.642L411.944 229.245" stroke="black" stroke-linecap="round" stroke-linejoin="round"/>
<path d="M111.992 190.284C106.3 204.423 106.281 220.213 111.94 234.365C114.111 239.721 117.697 245.23 123.33 246.52C128.574 247.721 134.041 244.74 137.438 240.569C140.446 236.878 142.112 231.185 139.098 227.5C136.635 224.488 132.072 224.154 128.316 225.172C119.92 227.45 113.72 235.15 111.511 243.564C109.302 251.978 110.579 260.966 113.225 269.253C115.052 274.97 118.598 281.312 124.577 281.841C128.528 282.191 132.202 279.789 136.145 279.358C141.946 278.725 147.797 282.949 149.316 288.584C150.835 294.219 148.09 300.633 143.124 303.699C138.158 306.765 131.405 306.441 126.567 303.182" stroke="black" stroke-linecap="round" stroke-linejoin="round"/>
<path d="M155.581 280.393L150.438 275.25" stroke="black" stroke-linecap="round" stroke-linejoin="round"/>
<path d="M151.172 279.29C152.16 277.348 153.64 275.698 155.464 274.506L154.479 273.777" stroke="black" stroke-linecap="round" stroke-linejoin="round"/>
<path d="M98.2783 221.592L93.4997 217.921" stroke="black" stroke-linecap="round" stroke-linejoin="round"/>
<path d="M94.5313 222.305C95.8282 220.301 96.8375 218.126 97.5308 215.842" stroke="black" stroke-linecap="round" stroke-linejoin="round"/>
<path d="M235.918 33.9011L239.266 37.5954C239.367 37.7069 239.5 37.7849 239.646 37.8186C239.793 37.8525 239.946 37.8405 240.086 37.7843C240.225 37.7282 240.344 37.6306 240.427 37.5047C240.51 37.3789 240.551 37.2307 240.547 37.0803L240.406 32.0969C240.402 31.9516 240.441 31.8082 240.518 31.685C240.595 31.5618 240.707 31.4643 240.84 31.4047L245.388 29.3626C245.525 29.301 245.64 29.1989 245.718 29.0698C245.795 28.9408 245.831 28.7912 245.821 28.6411C245.811 28.491 245.755 28.3477 245.661 28.2303C245.566 28.113 245.439 28.0273 245.294 27.9849L240.511 26.5787C240.372 26.5379 240.248 26.4567 240.154 26.3455C240.061 26.2343 240.003 26.098 239.987 25.9537L239.451 20.9975C239.435 20.8478 239.373 20.7066 239.274 20.593C239.175 20.4794 239.044 20.3988 238.898 20.3621C238.752 20.3255 238.598 20.3344 238.457 20.3879C238.317 20.4414 238.196 20.5367 238.111 20.661L235.299 24.7756C235.216 24.8956 235.101 24.9886 234.965 25.0429C234.83 25.0971 234.682 25.1101 234.54 25.0803L229.661 24.0589C229.513 24.028 229.36 24.043 229.221 24.1018C229.083 24.1607 228.966 24.2606 228.886 24.3881C228.806 24.5156 228.767 24.6645 228.774 24.8148C228.781 24.9651 228.835 25.1096 228.927 25.2287L231.97 29.1777C232.058 29.2928 232.111 29.4317 232.121 29.5768C232.131 29.7219 232.098 29.8666 232.026 29.9928L229.547 34.3183C229.472 34.4488 229.439 34.5991 229.452 34.7489C229.465 34.8988 229.524 35.041 229.62 35.1564C229.716 35.2718 229.846 35.3549 229.991 35.3945C230.136 35.434 230.29 35.4282 230.432 35.3777L235.128 33.7032C235.264 33.6547 235.412 33.6476 235.553 33.6828C235.693 33.718 235.82 33.794 235.918 33.9011Z" fill="black"/>
<path d="M91.8983 277.162L94.091 280.443C94.1572 280.542 94.2525 280.618 94.3634 280.661C94.4743 280.705 94.5957 280.714 94.7118 280.686C94.8275 280.658 94.9322 280.595 95.0118 280.506C95.091 280.417 95.141 280.306 95.1551 280.188L95.6238 276.268C95.6379 276.153 95.6848 276.045 95.7598 275.958C95.8348 275.87 95.9337 275.807 96.0447 275.776L99.8467 274.705C99.9613 274.673 100.063 274.606 100.139 274.514C100.214 274.422 100.26 274.309 100.27 274.19C100.279 274.071 100.252 273.953 100.192 273.85C100.132 273.746 100.042 273.665 99.9332 273.615L96.3494 271.957C96.2452 271.909 96.1572 271.831 96.0973 271.732C96.0369 271.634 96.0072 271.52 96.0119 271.405L96.1681 267.46C96.1728 267.341 96.141 267.223 96.077 267.123C96.0129 267.022 95.9191 266.944 95.8092 266.898C95.6993 266.853 95.578 266.842 95.4613 266.867C95.3452 266.893 95.2394 266.953 95.1582 267.041L92.4744 269.937C92.3962 270.021 92.2947 270.08 92.1827 270.107C92.0702 270.134 91.953 270.127 91.8447 270.087L88.141 268.72C88.0296 268.679 87.9077 268.672 87.7926 268.703C87.677 268.732 87.5738 268.797 87.4962 268.888C87.4186 268.978 87.3712 269.09 87.3592 269.209C87.3473 269.327 87.3723 269.446 87.4301 269.551L89.3572 272.998C89.4134 273.098 89.4384 273.214 89.429 273.329C89.4197 273.443 89.377 273.553 89.3051 273.643L86.8572 276.743C86.7832 276.837 86.74 276.951 86.7327 277.07C86.7259 277.19 86.7556 277.308 86.8181 277.41C86.8806 277.511 86.9728 277.592 87.0822 277.64C87.1915 277.687 87.3129 277.7 87.4301 277.677L91.3035 276.911C91.4165 276.89 91.5332 276.902 91.639 276.946C91.7447 276.991 91.8348 277.066 91.8983 277.162Z" fill="black"/>
<g opacity="0.1">
<path d="M439.323 456.214C436.342 458.672 431.422 454.428 429.33 452.319C426.139 449.146 423.721 445.281 422.263 441.023C420.8 436.77 420.654 432.239 420.009 427.825C419.436 423.922 418.277 419.958 414.352 418.264C410.369 416.545 405.642 416.972 401.414 416.846C396.242 416.676 391.085 416.187 385.973 415.385C375.941 413.823 366.144 411.014 356.809 407.021C346.273 402.508 336.407 396.57 327.486 389.373C325.796 388.019 326.1 385.161 327.486 383.748C329.128 382.069 331.444 382.416 333.114 383.748C348.806 396.255 367.861 404.457 387.636 407.709C392.486 408.493 397.381 408.954 402.292 409.089C406.961 409.228 411.871 409.02 416.331 410.639C426.204 414.22 427.521 423.69 428.294 432.903C428.648 437.657 430.191 442.246 432.783 446.248C434.123 448.356 436.052 450.276 437.771 452.082C438.493 452.84 440.823 454.979 439.324 456.215L439.323 456.214Z" fill="black"/>
</g>
<g opacity="0.1">
<path d="M280.922 400.932C276.613 399.3 274.634 393.513 272.528 389.76C270.164 385.548 267.932 381.262 265.663 376.997C260.961 368.157 256.32 359.286 251.738 350.385C249.347 345.761 256.322 341.659 258.737 346.295C263.363 355.179 267.947 364.083 272.487 373.009C274.672 377.326 276.895 381.624 278.982 385.989C280.805 389.798 284.647 395.09 283.506 399.466C283.239 400.489 281.977 401.332 280.923 400.932H280.922Z" fill="black"/>
</g>
<g opacity="0.1">
<path d="M180.84 357.4C178.896 362.106 174.538 365.83 171.022 369.419C167.3 373.219 163.614 377.052 159.963 380.919C152.785 388.539 145.697 396.227 139.089 404.356C132.554 412.332 126.6 420.767 121.273 429.595C116.122 438.206 112.155 447.217 108.222 456.418C104.435 465.278 99.1551 474.488 89.1801 477.123C84.0103 478.488 81.804 470.48 86.9733 469.119C94.6243 467.104 98.2519 458.888 101.08 452.226C104.986 443.019 108.997 434.027 114.145 425.427C124.652 407.884 137.988 392.166 152.03 377.373C155.995 373.195 160.098 369.144 164.203 365.106C168.141 361.231 172.351 356.199 177.567 354.126C179.35 353.418 181.584 355.599 180.84 357.4Z" fill="black"/>
</g>
<g opacity="0.1">
<path d="M343.998 284.145C345.863 290.763 339.582 297.27 334.109 300.134C333.148 300.667 332.019 300.808 330.956 300.53C329.894 300.251 328.98 299.573 328.404 298.638C328.221 298.326 328.079 297.991 327.983 297.642C327.503 296.001 328.272 293.706 329.899 292.932C332.278 291.871 334.414 290.334 336.177 288.417C336.941 287.543 337.72 286.663 338.445 285.756C339.195 284.859 340.044 284.051 340.978 283.347C342.01 282.52 343.599 282.73 343.999 284.144L343.998 284.145Z" fill="black"/>
</g>
<g opacity="0.1">
<path d="M247.248 92.363C254.671 91.2266 262.229 91.7667 269.631 92.812C275.634 93.6599 282.925 94.9781 284.877 101.721C285.835 105.035 285.471 108.914 285.568 112.326C285.684 116.448 285.691 120.572 285.724 124.696C285.756 128.476 285.759 132.256 285.735 136.035C285.715 139.855 286.459 144.672 285.239 148.306C283.783 152.643 276.78 150.522 278.483 146.444L278.544 146.2C278.55 145.738 278.676 145.286 278.91 144.888C279.144 144.49 279.478 144.159 279.879 143.929C280.279 143.699 280.733 143.578 281.194 143.577C281.656 143.576 282.11 143.695 282.512 143.923L281.861 143.871L278.483 148.306C277.35 145.265 277.812 141.327 277.688 138.097C277.556 134.66 277.404 131.226 277.318 127.789C277.15 121.087 276.996 114.391 276.961 107.684C276.95 105.423 277.34 103.508 275.23 102.224C273.04 100.892 270.117 100.506 267.654 99.9755C261.134 98.5755 254.554 98.1818 247.942 97.4932C245.285 97.2167 244.087 92.8453 247.247 92.3609L247.248 92.363Z" fill="black"/>
</g>
<g opacity="0.1">
<path d="M296.018 102.917C298.778 102.854 301.524 103.913 304.269 104.208C307.077 104.51 310.136 104.687 312.924 104.156V109.583C305.798 107.799 299.048 103.76 292.262 100.895C285.179 97.9057 277.97 95.1338 270.702 92.6276C256.268 87.6609 241.442 83.9151 226.38 81.4297C223.984 81.0328 222.647 78.0677 223.242 75.9036C223.939 73.3651 226.367 72.362 228.768 72.7661C244.135 75.3281 259.254 79.2031 273.959 84.3479C281.292 86.9125 288.489 89.8505 295.522 93.15C302.388 96.3791 310.111 99.6453 315.657 104.878C317.445 106.565 316.06 109.688 313.667 109.681C310.379 109.671 307.197 109.749 303.923 109.286C300.987 108.869 297.437 108.409 295.027 106.552C293.569 105.427 293.913 102.958 296.013 102.912L296.018 102.917Z" fill="black"/>
</g>
<g opacity="0.1">
<path d="M290.492 87.5052C291.649 84.224 293.552 81.4078 293.675 77.8208C293.764 76.2057 293.646 74.5859 293.322 73.0005C292.853 70.9437 291.926 69.1911 293.361 67.2286C294.271 65.9838 295.605 65.2828 297.166 65.6802L297.603 65.7917C298.275 65.9776 298.886 66.3344 299.379 66.8266C299.871 67.3188 300.227 67.9302 300.413 68.601C302.359 75.6896 301.204 86.1984 294.544 90.6208C292.597 91.9135 289.7 89.7521 290.492 87.5052Z" fill="black"/>
</g>
</g>
</svg>
