<svg width="32" height="32" viewBox="0 0 32 32" fill="none" xmlns="http://www.w3.org/2000/svg">
<path d="M13.5002 13.3257C15.7331 12.9422 20.6925 12.5203 22.6668 13.901M9.3335 13.1727C9.35756 13.376 9.69627 14.2416 9.85079 13.7543C10.0353 13.1727 10.2107 12.5703 11.0002 12M13.5002 18.0782C15.7331 17.6947 20.6925 17.2728 22.6668 18.6535M9.3335 17.9252C9.35756 18.1285 9.69627 18.994 9.85079 18.5068C10.0353 17.9252 10.2107 17.3228 11.0002 16.7525M13.5002 22.8307C15.7331 22.4472 20.6925 22.0253 22.6668 23.406M9.61669 3.91532C8.46597 3.49451 6.04944 3.53659 5.58915 7.07139C5.01379 11.4899 5.58943 22.8516 5.58915 26.0076C5.58897 28.0036 6.16395 29.1637 9.04155 29.7949C11.9184 30.4258 26.5581 32.3119 26.3024 27.27C25.7263 15.9082 29.1793 3.28386 22.2749 3.91507M10.0864 23.9927C10.1241 23.9861 11.037 23.8436 10.999 22.8503C10.9553 21.7079 9.93435 21.8569 9.59209 22.3536C9.48196 22.5135 9.25113 22.9191 9.36362 23.4261C9.45237 23.8262 9.79183 24.0438 10.0864 23.9927ZM12.691 1.9208C15.0768 0.788537 19.9735 1.31982 19.9735 3.28386C19.9735 5.80872 19.9735 6.44002 17.672 6.44002C15.3705 6.44002 13.0691 7.07123 12.4937 5.8088C11.9654 4.64962 11.9222 2.95811 12.3641 2.20058C12.4381 2.07365 12.5582 1.9838 12.691 1.9208Z" stroke="black" stroke-linecap="round"/>
</svg>
