<svg width="20" height="20" viewBox="0 0 20 20" fill="none" xmlns="http://www.w3.org/2000/svg">
<path d="M8.43766 8.32854C9.83323 8.08884 12.9329 7.82516 14.1668 8.68809M5.8335 8.2329C5.84853 8.35996 6.06023 8.90092 6.1568 8.59641C6.27209 8.2329 6.38174 7.85641 6.87516 7.49998M8.43766 11.2988C9.83323 11.0591 12.9329 10.7955 14.1668 11.6584M5.8335 11.2032C5.84853 11.3303 6.06023 11.8712 6.1568 11.5667C6.27209 11.2032 6.38174 10.8267 6.87516 10.4703M8.43766 14.2691C9.83323 14.0294 12.9329 13.7658 14.1668 14.6287M6.01049 2.44703C5.29129 2.18402 3.78096 2.21032 3.49328 4.41957C3.13368 7.18114 3.49346 14.2822 3.49328 16.2547C3.49317 17.5022 3.85253 18.2273 5.65103 18.6217C7.44907 19.0161 16.5989 20.1949 16.4391 17.0437C16.079 9.9426 18.2371 2.05237 13.9219 2.44687M6.30407 14.9954C6.32764 14.9913 6.89821 14.9022 6.87444 14.2814C6.84711 13.5674 6.20903 13.6605 5.99512 13.9709C5.92628 14.0709 5.78202 14.3244 5.85232 14.6413C5.90779 14.8913 6.11996 15.0273 6.30407 14.9954ZM7.93194 1.20045C9.42308 0.49279 12.4835 0.824842 12.4835 2.05237C12.4835 3.6304 12.4835 4.02496 11.0451 4.02496C9.60665 4.02496 8.16824 4.41947 7.80864 3.63046C7.47845 2.90597 7.45145 1.84877 7.72763 1.37532C7.7739 1.29599 7.84896 1.23983 7.93194 1.20045Z" stroke="black" stroke-linecap="round"/>
</svg>
