<svg width="32" height="32" viewBox="0 0 32 32" fill="none" xmlns="http://www.w3.org/2000/svg">
<path d="M11.5908 14.6667L1.3335 1.33337M19.689 14.6667C23.2881 10.029 25.4477 8.20708 30.6668 1.58182M19.3335 20.8905L17.5349 21.2534C17.4381 21.2729 17.3458 21.2053 17.3355 21.1071C17.1989 19.8142 16.8754 17.6437 16.5294 18.0499C16.1798 18.4603 15.6237 20.6879 15.3622 21.8693C15.3452 21.9458 15.2776 22 15.1991 22H11.3335M20.6668 20.6667L17.9925 22.8751C17.9453 22.914 17.9233 22.9757 17.9351 23.0357L18.5667 26.2501C18.6006 26.4224 18.3793 26.5232 18.2716 26.3845L16.3663 23.9329C16.3032 23.8517 16.1823 23.8464 16.1124 23.9219L13.4587 26.7888C13.3378 26.9193 13.124 26.7952 13.1774 26.6255L14.1362 23.5797C14.1624 23.4965 14.1199 23.4072 14.0389 23.3748L11.3335 22.2963M24.0002 22.6667C24.0002 27.085 20.4184 30.6667 16.0002 30.6667C11.5819 30.6667 8.00016 27.085 8.00016 22.6667C8.00016 18.2484 11.5819 14.6667 16.0002 14.6667C20.4184 14.6667 24.0002 18.2484 24.0002 22.6667Z" stroke="black" stroke-linecap="round"/>
</svg>
