<svg width="32" height="32" viewBox="0 0 32 32" fill="none" xmlns="http://www.w3.org/2000/svg">
<path d="M14.0503 30.3889C14.6872 30.2943 30.1062 28.2375 29.4639 13.8948C29.4049 12.577 29.2405 11.3783 28.9851 10.2916M14.0503 30.3889C22.5015 29.8305 26.796 26.5199 28.718 22.5523M14.0503 30.3889C13.0278 30.5407 11.9733 30.5286 10.9301 30.3634M28.9851 10.2916C28.6652 8.93109 28.2026 7.74626 27.6252 6.72347M28.9851 10.2916C30.1365 13.4807 30.7391 18.3798 28.718 22.5523M27.6252 6.72347C22.8913 -1.66168 10.4419 0.843365 5.70119 6.72347C3.841 9.03272 -0.0576079 14.8891 1.84228 22.2095C3.03324 26.7984 6.89708 29.7249 10.9301 30.3634M27.6252 6.72347C29.4265 9.25391 32.04 15.1798 29.8056 20.5538M28.718 22.5523C29.1651 21.9002 29.5239 21.2314 29.8056 20.5538M10.9301 30.3634C16.263 31.2911 27.5043 30.628 29.8056 20.5538M12.7442 12.3061C13.6596 11.6813 18.7553 8.34593 17.2076 11.3161C15.66 14.2863 14 17.3334 14 22.6667" stroke="black" stroke-linecap="round"/>
</svg>
