<svg width="32" height="32" viewBox="0 0 32 32" fill="none" xmlns="http://www.w3.org/2000/svg">
<path d="M29.4639 13.8948L29.9634 13.8724L29.9634 13.8724L29.4639 13.8948ZM5.70119 6.72347L5.31194 6.40965L5.31181 6.40981L5.70119 6.72347ZM1.84228 22.2095L1.35832 22.3351L1.35832 22.3351L1.84228 22.2095ZM28.9851 10.2916L28.4983 10.406L28.4983 10.406L28.9851 10.2916ZM27.6252 6.72347L27.1898 6.96928L27.1898 6.96928L27.6252 6.72347ZM28.718 22.5523L28.268 22.3343L28.268 22.3343L28.718 22.5523ZM10.9301 30.3634L11.0083 29.8696L11.0083 29.8696L10.9301 30.3634ZM29.8056 20.5538L29.3439 20.3619L29.3439 20.3619L29.8056 20.5538ZM12.6103 10.1306C12.4075 10.318 12.395 10.6344 12.5824 10.8372C12.7698 11.04 13.0861 11.0524 13.289 10.865L12.6103 10.1306ZM15.7897 14.9629L15.4938 14.5599C15.3399 14.6729 15.2638 14.8637 15.2977 15.0517C15.3316 15.2396 15.4696 15.3918 15.6533 15.4439L15.7897 14.9629ZM19.5835 20.4183L19.1408 20.1858L19.1408 20.1858L19.5835 20.4183ZM11.8832 21.3193C11.6283 21.213 11.3355 21.3334 11.2292 21.5883C11.1229 21.8431 11.2434 22.1359 11.4983 22.2422L11.8832 21.3193ZM14.0503 30.3889L14.1237 30.8835C14.4525 30.8347 18.5505 30.2863 22.4945 27.9133C26.4632 25.5255 30.2947 21.2718 29.9634 13.8724L29.4639 13.8948L28.9644 13.9172C29.2753 20.8605 25.7184 24.8066 21.979 27.0565C18.2148 29.3212 14.2849 29.8486 13.9768 29.8943L14.0503 30.3889ZM5.70119 6.72347L5.31181 6.40981C3.42475 8.75241 -0.603367 14.7766 1.35832 22.3351L1.84228 22.2095L2.32625 22.0839C0.488151 15.0016 4.25725 9.31303 6.09057 7.03713L5.70119 6.72347ZM29.4639 13.8948L29.9634 13.8724C29.9032 12.5268 29.7351 11.297 29.4718 10.1772L28.9851 10.2916L28.4983 10.406C28.746 11.4595 28.9067 12.6272 28.9644 13.9172L29.4639 13.8948ZM28.9851 10.2916L29.4718 10.1772C29.1421 8.77486 28.6633 7.54519 28.0606 6.47766L27.6252 6.72347L27.1898 6.96928C27.7419 7.94733 28.1883 9.08732 28.4983 10.406L28.9851 10.2916ZM27.6252 6.72347L28.0606 6.47766C25.5724 2.07021 21.0594 0.552473 16.6294 0.875322C12.216 1.19696 7.78185 3.34609 5.31194 6.40965L5.70119 6.72347L6.09044 7.03729C8.3612 4.22074 12.5221 2.1773 16.7021 1.87268C20.8654 1.56927 24.9442 2.99158 27.1898 6.96928L27.6252 6.72347ZM28.9851 10.2916L28.5148 10.4614C29.6396 13.5768 30.2097 18.3259 28.268 22.3343L28.718 22.5523L29.1679 22.7703C31.2686 18.4338 30.6334 13.3846 29.4554 10.1218L28.9851 10.2916ZM28.718 22.5523L28.268 22.3343C26.4439 26.0998 22.3389 29.3401 14.0173 29.89L14.0503 30.3889L14.0832 30.8878C22.6642 30.3208 27.1481 26.94 29.1679 22.7703L28.718 22.5523ZM1.84228 22.2095L1.35832 22.3351C2.60497 27.1386 6.64596 30.1914 10.8519 30.8573L10.9301 30.3634L11.0083 29.8696C7.1482 29.2584 3.46151 26.4582 2.32625 22.0839L1.84228 22.2095ZM10.9301 30.3634L10.8519 30.8573C11.9425 31.03 13.0482 31.0432 14.1237 30.8835L14.0503 30.3889L13.9768 29.8943C13.0074 30.0383 12.0041 30.0273 11.0083 29.8696L10.9301 30.3634ZM27.6252 6.72347L27.2179 7.01343C28.0846 8.23098 29.1598 10.2873 29.7429 12.6902C30.3255 15.0913 30.4085 17.8015 29.3439 20.3619L29.8056 20.5538L30.2673 20.7458C31.4372 17.9321 31.3305 14.9923 30.7147 12.4544C30.0993 9.91825 28.9671 7.74639 28.0325 6.4335L27.6252 6.72347ZM29.8056 20.5538L29.3439 20.3619C29.0753 21.0079 28.733 21.6463 28.3056 22.2695L28.718 22.5523L29.1303 22.8351C29.5973 22.1541 29.9725 21.4548 30.2673 20.7458L29.8056 20.5538ZM10.9301 30.3634L10.8444 30.856C13.5709 31.3303 17.8041 31.4005 21.6689 30.0566C25.5556 28.705 29.0953 25.9083 30.2931 20.6652L29.8056 20.5538L29.3182 20.4425C28.2145 25.2736 24.983 27.8454 21.3405 29.1121C17.6761 30.3863 13.6222 30.3242 11.0158 29.8708L10.9301 30.3634ZM12.9496 10.4978L13.289 10.865C14.2575 9.96996 16.1399 9.23027 18.3916 10.1348L18.578 9.67083L18.7643 9.20687C16.1172 8.1435 13.832 9.00152 12.6103 10.1306L12.9496 10.4978ZM18.578 9.67083L18.3916 10.1348C18.9051 10.3411 19.0023 10.563 19.0183 10.7153C19.0408 10.9303 18.9342 11.2661 18.6024 11.7291C17.9524 12.636 16.7026 13.6724 15.4938 14.5599L15.7897 14.9629L16.0857 15.3659C17.294 14.4788 18.663 13.3611 19.4152 12.3116C19.7845 11.7964 20.0748 11.2034 20.0128 10.6112C19.9443 9.95631 19.4756 9.49258 18.7643 9.20687L18.578 9.67083ZM15.7897 14.9629L15.6533 15.4439C16.8511 15.7837 18.0092 16.5151 18.715 17.4049C19.4127 18.2846 19.6305 19.2533 19.1408 20.1858L19.5835 20.4183L20.0261 20.6508C20.7545 19.2641 20.3599 17.8695 19.4985 16.7835C18.6451 15.7076 17.2973 14.8708 15.9262 14.4819L15.7897 14.9629ZM19.5835 20.4183L19.1408 20.1858C18.5207 21.3665 17.5988 21.9903 16.416 22.1678C15.2016 22.3501 13.6735 22.0659 11.8832 21.3193L11.6907 21.7807L11.4983 22.2422C13.3696 23.0226 15.0945 23.3774 16.5644 23.1567C18.0658 22.9314 19.2595 22.1104 20.0261 20.6508L19.5835 20.4183Z" fill="black"/>
</svg>
