<svg width="32" height="32" viewBox="0 0 32 32" fill="none" xmlns="http://www.w3.org/2000/svg">
<path d="M29.4639 13.8948L29.9634 13.8724L29.9634 13.8724L29.4639 13.8948ZM5.70119 6.72347L5.31194 6.40965L5.31181 6.40981L5.70119 6.72347ZM1.84228 22.2095L1.35832 22.3351L1.35832 22.3351L1.84228 22.2095ZM28.9851 10.2916L28.4983 10.406L28.4983 10.406L28.9851 10.2916ZM27.6252 6.72347L27.1898 6.96928L27.1898 6.96928L27.6252 6.72347ZM28.718 22.5523L28.268 22.3343L28.268 22.3343L28.718 22.5523ZM10.9301 30.3634L11.0083 29.8696L11.0083 29.8696L10.9301 30.3634ZM29.8056 20.5538L29.3439 20.3619L29.3439 20.3619L29.8056 20.5538ZM12.5012 10.9512C12.3355 11.1721 12.3803 11.4855 12.6012 11.6512C12.8221 11.8169 13.1355 11.7721 13.3012 11.5512L12.5012 10.9512ZM16.9018 13.9178L16.4629 13.6783L16.4629 13.6783L16.9018 13.9178ZM19.5016 21.8041C19.7616 21.711 19.8969 21.4248 19.8038 21.1648C19.7106 20.9048 19.4244 20.7695 19.1644 20.8626L19.5016 21.8041ZM14.0503 30.3889L14.1237 30.8835C14.4525 30.8347 18.5505 30.2863 22.4945 27.9133C26.4632 25.5255 30.2947 21.2718 29.9634 13.8724L29.4639 13.8948L28.9644 13.9172C29.2753 20.8605 25.7184 24.8066 21.979 27.0565C18.2148 29.3212 14.2849 29.8486 13.9768 29.8943L14.0503 30.3889ZM5.70119 6.72347L5.31181 6.40981C3.42475 8.75241 -0.603367 14.7766 1.35832 22.3351L1.84228 22.2095L2.32625 22.0839C0.488151 15.0016 4.25725 9.31303 6.09057 7.03713L5.70119 6.72347ZM29.4639 13.8948L29.9634 13.8724C29.9032 12.5268 29.7351 11.297 29.4718 10.1772L28.9851 10.2916L28.4983 10.406C28.746 11.4595 28.9067 12.6272 28.9644 13.9172L29.4639 13.8948ZM28.9851 10.2916L29.4718 10.1772C29.1421 8.77486 28.6633 7.54519 28.0606 6.47766L27.6252 6.72347L27.1898 6.96928C27.7419 7.94733 28.1883 9.08732 28.4983 10.406L28.9851 10.2916ZM27.6252 6.72347L28.0606 6.47766C25.5724 2.07021 21.0594 0.552473 16.6294 0.875322C12.216 1.19696 7.78185 3.34609 5.31194 6.40965L5.70119 6.72347L6.09044 7.03729C8.3612 4.22074 12.5221 2.1773 16.7021 1.87268C20.8654 1.56927 24.9442 2.99158 27.1898 6.96928L27.6252 6.72347ZM28.9851 10.2916L28.5148 10.4614C29.6396 13.5768 30.2097 18.3259 28.268 22.3343L28.718 22.5523L29.1679 22.7703C31.2686 18.4338 30.6334 13.3846 29.4554 10.1218L28.9851 10.2916ZM28.718 22.5523L28.268 22.3343C26.4439 26.0998 22.3389 29.3401 14.0173 29.89L14.0503 30.3889L14.0832 30.8878C22.6642 30.3208 27.1481 26.94 29.1679 22.7703L28.718 22.5523ZM1.84228 22.2095L1.35832 22.3351C2.60497 27.1386 6.64596 30.1914 10.8519 30.8573L10.9301 30.3634L11.0083 29.8696C7.1482 29.2584 3.46151 26.4582 2.32625 22.0839L1.84228 22.2095ZM10.9301 30.3634L10.8519 30.8573C11.9425 31.03 13.0482 31.0432 14.1237 30.8835L14.0503 30.3889L13.9768 29.8943C13.0074 30.0383 12.0041 30.0273 11.0083 29.8696L10.9301 30.3634ZM27.6252 6.72347L27.2179 7.01343C28.0846 8.23098 29.1598 10.2873 29.7429 12.6902C30.3255 15.0913 30.4085 17.8015 29.3439 20.3619L29.8056 20.5538L30.2673 20.7458C31.4372 17.9321 31.3305 14.9923 30.7147 12.4544C30.0993 9.91825 28.9671 7.74639 28.0325 6.4335L27.6252 6.72347ZM29.8056 20.5538L29.3439 20.3619C29.0753 21.0079 28.733 21.6463 28.3056 22.2695L28.718 22.5523L29.1303 22.8351C29.5973 22.1541 29.9725 21.4548 30.2673 20.7458L29.8056 20.5538ZM10.9301 30.3634L10.8444 30.856C13.5709 31.3303 17.8041 31.4005 21.6689 30.0566C25.5556 28.705 29.0953 25.9083 30.2931 20.6652L29.8056 20.5538L29.3182 20.4425C28.2145 25.2736 24.983 27.8454 21.3405 29.1121C17.6761 30.3863 13.6222 30.3242 11.0158 29.8708L10.9301 30.3634ZM12.9012 11.2512L13.3012 11.5512C13.7466 10.9574 14.3784 10.4738 15.0304 10.1714C15.6927 9.86427 16.3117 9.77257 16.7386 9.87154C16.9434 9.91904 17.0916 10.0067 17.1945 10.1234C17.2967 10.2393 17.3838 10.4175 17.4101 10.6978C17.4649 11.2815 17.2473 12.2402 16.4629 13.6783L16.9018 13.9178L17.3407 14.1572C18.1563 12.662 18.4886 11.4873 18.4058 10.6044C18.3633 10.1513 18.2097 9.76288 17.9447 9.46216C17.6803 9.16224 17.3346 8.98321 16.9644 8.89738C16.2412 8.7297 15.385 8.90468 14.6097 9.26422C13.8241 9.62856 13.0559 10.2116 12.5012 10.9512L12.9012 11.2512ZM16.9018 13.9178L16.4629 13.6783C15.4767 15.4863 14.517 16.8839 13.7256 17.9664C13.3259 18.5132 12.9784 18.9673 12.6768 19.3736C12.3832 19.7693 12.1324 20.1203 11.962 20.4216C11.8045 20.7001 11.6494 21.0451 11.7014 21.3938C11.765 21.8204 12.0896 22.0494 12.411 22.168C12.7227 22.2831 13.1404 22.3406 13.6387 22.3737C14.1475 22.4074 14.7875 22.4177 15.5685 22.4177V21.9177V21.4177C14.7908 21.4177 14.1786 21.4072 13.7048 21.3758C13.2205 21.3438 12.9254 21.2919 12.7573 21.2299C12.599 21.1715 12.6769 21.1556 12.6905 21.2463C12.6924 21.2592 12.6836 21.177 12.8325 20.9139C12.9684 20.6735 13.1839 20.3683 13.4798 19.9697C13.7677 19.5817 14.1331 19.1035 14.5329 18.5566C15.3406 17.4517 16.3269 16.0159 17.3407 14.1572L16.9018 13.9178ZM15.5685 21.9177V22.4177C16.6791 22.4177 17.6567 22.2658 18.3564 22.1142C18.7069 22.0383 18.9893 21.9622 19.1858 21.9044C19.2841 21.8755 19.361 21.8511 19.4144 21.8336C19.4411 21.8249 19.4618 21.8179 19.4765 21.8129C19.4838 21.8104 19.4896 21.8083 19.4938 21.8069C19.4959 21.8061 19.4976 21.8055 19.4989 21.8051C19.4995 21.8048 19.5001 21.8046 19.5005 21.8045C19.5008 21.8044 19.501 21.8043 19.5011 21.8043C19.5012 21.8042 19.5013 21.8042 19.5014 21.8042C19.5015 21.8041 19.5016 21.8041 19.333 21.3334C19.1644 20.8626 19.1645 20.8626 19.1646 20.8626C19.1646 20.8626 19.1647 20.8626 19.1648 20.8625C19.1648 20.8625 19.1649 20.8625 19.1649 20.8625C19.165 20.8625 19.1649 20.8625 19.1648 20.8625C19.1645 20.8626 19.1639 20.8629 19.1628 20.8632C19.1607 20.864 19.157 20.8652 19.1519 20.867C19.1416 20.8705 19.1252 20.8761 19.1031 20.8833C19.0589 20.8978 18.9917 20.9191 18.9037 20.945C18.7276 20.9968 18.4688 21.0667 18.1447 21.1369C17.4954 21.2775 16.5907 21.4177 15.5685 21.4177V21.9177Z" fill="black"/>
</svg>
