<svg width="32" height="32" viewBox="0 0 32 32" fill="none" xmlns="http://www.w3.org/2000/svg">
<path d="M23.1503 13.0841C22.7086 13.3392 21.9696 13.4149 20.7811 13.0509C20.6858 13.0217 20.5816 13.0244 20.4928 13.0674C19.3686 13.612 17.8515 15.1678 19.8581 17.5766C22.4725 20.7147 23.8281 15.854 23.1503 13.0841ZM23.1503 13.0841C23.344 12.8967 23.7313 12.4032 23.7313 11.9277M9.16148 11.9277C8.37165 10.0448 6.85727 5.1969 9.16148 4.57555C12.2082 3.75426 11.531 13.1829 12.8865 11.9277C14.2421 10.6725 11.531 0.182196 15.2104 1.43744C17.7677 2.30984 17.2458 7.26052 16.4512 10.5632C16.3639 10.926 16.9295 11.252 17.2715 11.0575C18.9176 10.1207 21.4557 9.59886 23.7313 11.9277M9.16148 11.9277C8.26276 10.416 7.94785 8.86492 6.39922 9.05859C2.71973 9.95519 9.59456 22.2387 11.5311 24.8388C13.0804 26.9189 12.564 29.1127 12.1121 29.9494M9.16148 11.9277C9.60174 12.6683 9.88442 13.4376 10.5622 14.4239M23.7313 11.9277C24.8288 11.6587 26.946 11.9456 26.6362 15.2451C26.3263 18.5446 23.9895 22.2983 22.8599 23.7629C21.6335 25.1675 19.2772 28.5149 19.6645 30.6667" stroke="black" stroke-linecap="round"/>
</svg>
