<svg width="48" height="48" viewBox="0 0 48 48" fill="none" xmlns="http://www.w3.org/2000/svg">
<path d="M3.38516 19.3447L43.5173 12.0364C45.5802 11.6608 46.8543 14.2793 45.3277 15.7573L28.3983 32.1476C28.2431 32.2978 28.071 32.4309 27.8629 32.4769C26.6146 32.7524 23.8629 31.9273 21.0509 30.8407M2 20.6642C3.35354 21.763 6.24178 23.8036 8.79277 24.78C9.80266 25.1666 10.5934 26.1232 10.5918 27.2331C10.5877 29.9574 10.7169 33.405 11.1779 35.3401C11.418 36.348 12.2733 36.1331 12.6156 35.157C12.6994 34.9181 12.7875 34.6634 12.8789 34.3947M14.6472 28.141C19.498 25.7817 31.7696 19.8729 42.0493 15.1115M12.2243 35.7952L21.0509 30.8407M21.0509 30.8407C20.3171 30.5571 19.5792 30.2557 18.8629 29.9515M12.5393 23.7978L25.1864 19.4547M12.8789 34.3947L19.9168 30.4584L18.8629 29.9515M12.8789 34.3947C13.0039 34.0274 13.1351 33.634 13.2701 33.2193M18.8629 29.9515L13.2701 33.2193M18.8629 29.9515C18.4585 29.7797 18.061 29.607 17.675 29.4361M13.2701 33.2193C13.4101 32.7891 13.5542 32.336 13.6997 31.8653M13.6997 31.8653C13.8259 31.4569 13.9532 31.0352 14.0797 30.6038C14.1098 30.5011 14.1463 30.4023 14.1886 30.3078M13.6997 31.8653L17.675 29.4361M17.675 29.4361C17.4748 29.3474 17.2776 29.2592 17.0841 29.1719C16.9758 29.1229 16.8658 29.0838 16.755 29.0541M16.755 29.0541C15.7275 28.7783 14.6349 29.3104 14.1886 30.3078M16.755 29.0541L14.1886 30.3078" stroke="black" stroke-linecap="round"/>
</svg>
