<svg width="20" height="20" viewBox="0 0 20 20" fill="none" xmlns="http://www.w3.org/2000/svg">
<path d="M18.3335 4.87453C18.1045 1.94044 15.8008 0.877622 14.3324 0.834677C14.2733 0.832947 14.2174 0.858494 14.1779 0.902565L3.84086 12.431C3.82125 12.4528 3.80649 12.4786 3.79754 12.5066L2.16906 17.5969M18.2361 4.97312L8.04035 17.0515C8.01538 17.0811 7.98266 17.1031 7.94586 17.1152L3.5861 18.5396M7.90462 17.0968C7.64458 15.881 6.50111 13.4892 4.00598 12.8584M2.34962 18.9436L2.05413 19.0401C1.89259 19.0929 1.73922 18.9405 1.791 18.7786L1.85199 18.588M2.34962 18.9436C2.39978 18.9377 2.37048 18.8584 1.85199 18.588M2.34962 18.9436L2.85636 18.778M1.85199 18.588L1.96012 18.25M2.85636 18.778C2.65537 18.602 2.19474 18.25 1.96012 18.25M2.85636 18.778L3.30421 18.6317M1.96012 18.25L2.07964 17.8764M3.30421 18.6317C3.03362 18.4082 2.40987 17.9442 2.07964 17.8764M3.30421 18.6317L3.5861 18.5396M2.07964 17.8764L2.16906 17.5969M3.5861 18.5396C3.43548 18.3132 2.94121 17.8077 2.16906 17.5969" stroke="black" stroke-linecap="round"/>
</svg>
