<svg width="32" height="32" viewBox="0 0 32 32" fill="none" xmlns="http://www.w3.org/2000/svg">
<path d="M12.1733 11.3368L12.577 11.6318C12.6794 11.4917 12.7018 11.3086 12.6363 11.1479C12.5707 10.9873 12.4266 10.8721 12.2555 10.8436L12.1733 11.3368ZM5.42268 13.5676L5.06551 13.2177L5.06551 13.2177L5.42268 13.5676ZM3.77144 16.0463L3.31301 15.8467C3.23904 16.0166 3.26509 16.2134 3.3807 16.3583C3.4963 16.5031 3.68251 16.5721 3.86457 16.5375L3.77144 16.0463ZM9.55077 15.9471L9.48677 16.443C9.70849 16.4717 9.92226 16.3496 10.0103 16.1441L9.55077 15.9471ZM16.2771 28.8112L15.7894 28.7011C15.7476 28.8862 15.8142 29.0791 15.9614 29.1989C16.1085 29.3188 16.3109 29.345 16.4837 29.2666L16.2771 28.8112ZM18.7054 27.1257L18.3482 26.7758L18.3424 26.7819L18.7054 27.1257ZM20.8909 20.235L21.3847 20.1568C21.3573 19.9837 21.2413 19.8376 21.0789 19.7717C20.9166 19.7058 20.7315 19.7297 20.5912 19.8347L20.8909 20.235ZM16.3742 22.8872L16.1765 22.428C15.9721 22.516 15.8505 22.7285 15.8781 22.9492L16.3742 22.8872ZM10.1097 21.0036L9.75256 20.6537L9.75256 20.6537L10.1097 21.0036ZM14.9663 16.0462L15.3235 16.3961L15.3235 16.3961L14.9663 16.0462ZM16.2776 17.3847L16.6347 17.7346L16.2776 17.3847ZM11.421 22.3421L11.0638 21.9922L11.421 22.3421ZM14.846 18.8045C14.6444 18.6159 14.328 18.6264 14.1393 18.828C13.9506 19.0297 13.9611 19.3461 14.1628 19.5347L14.846 18.8045ZM17.9946 22.3544C18.234 22.4921 18.5396 22.4097 18.6773 22.1703C18.815 21.931 18.7326 21.6253 18.4933 21.4876L17.9946 22.3544ZM10.9616 13.7749C10.8296 13.5323 10.526 13.4427 10.2834 13.5747C10.0409 13.7067 9.95126 14.0104 10.0833 14.2529L10.9616 13.7749ZM12.8458 18.1651C13.0303 18.3706 13.3465 18.3876 13.5519 18.2031C13.7574 18.0186 13.7744 17.7024 13.5899 17.497L12.8458 18.1651ZM13.5323 20.14C13.3292 19.9529 13.0128 19.9659 12.8258 20.169C12.6387 20.3721 12.6516 20.6884 12.8547 20.8755L13.5323 20.14ZM16.326 22.9121L16.0579 23.3342L16.2832 23.4772L16.5274 23.3697L16.326 22.9121ZM24.1866 18.0072C24.3798 17.8099 24.3766 17.4934 24.1793 17.3001C23.9821 17.1069 23.6655 17.1101 23.4722 17.3074L24.1866 18.0072ZM14.6748 8.31268L14.3185 7.96185L14.3176 7.96278L14.6748 8.31268ZM11.5117 19.505C11.6972 19.7097 12.0134 19.7252 12.218 19.5398C12.4226 19.3544 12.4382 19.0382 12.2527 18.8335L11.5117 19.505ZM25.5036 14.9621C25.3361 15.1817 25.3782 15.4954 25.5977 15.663C25.8172 15.8305 26.131 15.7884 26.2985 15.5688L25.5036 14.9621ZM30.6529 1.3476L31.1525 1.32748L31.134 0.867339L30.6738 0.848038L30.6529 1.3476ZM23.6445 1.94809C23.3838 2.039 23.2461 2.32407 23.337 2.58482C23.4279 2.84557 23.713 2.98326 23.9737 2.89235L23.6445 1.94809ZM22.1384 3.63086C22.3895 3.51606 22.5001 3.2194 22.3853 2.96825C22.2705 2.7171 21.9738 2.60657 21.7227 2.72136L22.1384 3.63086ZM25.3034 1.8365C25.1627 1.59892 24.856 1.5204 24.6184 1.66114C24.3808 1.80188 24.3023 2.10857 24.4431 2.34616L25.3034 1.8365ZM27.1073 4.99138L27.4645 4.64144L27.4595 4.63648L27.1073 4.99138ZM29.6888 7.67429C29.9248 7.81767 30.2323 7.7426 30.3757 7.5066C30.5191 7.27061 30.444 6.96306 30.208 6.81967L29.6888 7.67429ZM4.22368 23.2507C4.2431 23.5262 4.48214 23.7337 4.7576 23.7143C5.03306 23.6949 5.24062 23.4558 5.2212 23.1804L4.22368 23.2507ZM2.19639 21.1252L1.96586 20.6815L1.96586 20.6815L2.19639 21.1252ZM1.56375 24.1735C1.76119 24.3665 2.07776 24.363 2.27081 24.1655C2.46386 23.9681 2.4603 23.6515 2.26285 23.4585L1.56375 24.1735ZM3.76016 24.7658C3.92855 24.9847 4.24248 25.0256 4.46134 24.8572C4.6802 24.6888 4.72112 24.3749 4.55273 24.156L3.76016 24.7658ZM2.13125 25.9953L1.64664 26.1184L1.64664 26.1184L2.13125 25.9953ZM5.296 27.4087C5.53618 27.2724 5.62042 26.9673 5.48416 26.7271C5.3479 26.4869 5.04273 26.4027 4.80255 26.5389L5.296 27.4087ZM2.82869 28.4614C2.63549 28.2641 2.31892 28.2608 2.12162 28.454C1.92432 28.6472 1.921 28.9638 2.1142 29.1611L2.82869 28.4614ZM4.68886 29.4706C4.9179 29.3163 4.9785 29.0056 4.82424 28.7765C4.66997 28.5475 4.35924 28.4869 4.13021 28.6412L4.68886 29.4706ZM7.69713 28.5369C7.82347 28.7825 8.12494 28.8791 8.37049 28.7528C8.61603 28.6264 8.71267 28.325 8.58634 28.0794L7.69713 28.5369ZM6.3343 28.1525L6.69154 28.5023L6.69154 28.5023L6.3343 28.1525ZM7.40082 30.731C7.6704 30.6711 7.84042 30.4041 7.78057 30.1345C7.72072 29.8649 7.45367 29.6949 7.18409 29.7548L7.40082 30.731ZM9.89108 27.088C9.6225 27.0238 9.35273 27.1895 9.28854 27.458C9.22435 27.7266 9.39004 27.9964 9.65862 28.0606L9.89108 27.088ZM11.5823 29.7758L11.0961 29.6591L11.0961 29.6591L11.5823 29.7758ZM9.34536 29.9292C9.09843 29.8056 8.79804 29.9055 8.67443 30.1525C8.55082 30.3994 8.6508 30.6998 8.89773 30.8234L9.34536 29.9292ZM8.33273 23.5579C8.47261 23.3198 8.393 23.0134 8.15491 22.8735C7.91682 22.7336 7.61041 22.8132 7.47053 23.0513L8.33273 23.5579ZM5.30552 24.4157C5.07171 24.5626 5.00129 24.8712 5.14822 25.105C5.29515 25.3388 5.6038 25.4093 5.83761 25.2623L5.30552 24.4157ZM9.75709 25.1803C9.90859 24.9494 9.84424 24.6395 9.61337 24.488C9.38249 24.3365 9.07252 24.4008 8.92102 24.6317L9.75709 25.1803ZM7.50556 26.7888C7.35406 27.0197 7.41841 27.3296 7.64928 27.4811C7.88016 27.6326 8.19013 27.5683 8.34163 27.3374L7.50556 26.7888ZM16.5218 26.6341L16.0222 26.6158L16.5218 26.6341ZM19.2925 26.4572L19.6857 26.766L19.6857 26.766L19.2925 26.4572ZM19.7752 25.7713L20.1987 26.0371L19.7752 25.7713ZM16.5207 24.906L16.021 24.9228L16.5207 24.906ZM20.6293 23.9153L21.1067 24.0641L21.1067 24.0641L20.6293 23.9153ZM16.4546 23.8042L15.9559 23.839L16.4546 23.8042ZM16.4163 23.3046L15.9181 23.3473L16.4163 23.3046ZM20.7934 23.3046L21.281 23.415L20.7934 23.3046ZM20.9057 22.7026L21.4004 22.7756L20.9057 22.7026ZM17.0726 22.57L16.857 22.1188L16.857 22.1188L17.0726 22.57ZM17.8098 22.192L17.5752 21.7505L17.8098 22.192ZM19.8988 20.9416L19.6187 20.5274L19.6187 20.5274L19.8988 20.9416ZM20.9717 20.9416L21.4705 20.9063L20.9717 20.9416ZM4.19673 15.1961L3.7625 14.9482L4.19673 15.1961ZM4.60824 14.5473L4.19916 14.2598L4.19916 14.2598L4.60824 14.5473ZM5.01804 14.0139L4.63494 13.6926L4.63494 13.6926L5.01804 14.0139ZM5.8395 13.1714L5.50825 12.7969L5.8395 13.1714ZM6.88408 12.3917L6.61954 11.9674L6.61954 11.9674L6.88408 12.3917ZM7.46526 12.0634L7.23847 11.6178L7.23847 11.6178L7.46526 12.0634ZM10.4064 14.1604L10.848 14.3949L10.848 14.3949L10.4064 14.1604ZM9.03591 11.4709L8.912 10.9865L9.03591 11.4709ZM9.67197 11.3368L9.58983 10.8436L9.58983 10.8436L9.67197 11.3368ZM11.2837 12.6202L11.7078 12.8851L11.7078 12.8851L11.2837 12.6202ZM11.5498 12.2032L11.9687 12.4763L11.9687 12.4763L11.5498 12.2032ZM10.1097 22.3421L10.4669 21.9922C10.2931 21.8148 10.2931 21.5309 10.4669 21.3535L10.1097 21.0036L9.75256 20.6537C9.19787 21.2199 9.19787 22.1258 9.75256 22.692L10.1097 22.3421ZM10.1097 21.0036L10.4669 21.3535L15.3235 16.3961L14.9663 16.0462L14.6091 15.6963L9.75256 20.6537L10.1097 21.0036ZM14.9663 16.0462L15.3235 16.3961C15.4917 16.2245 15.7522 16.2245 15.9204 16.3961L16.2776 16.0462L16.6347 15.6963C16.0744 15.1244 15.1694 15.1244 14.6091 15.6963L14.9663 16.0462ZM16.2776 16.0462L15.9204 16.3961C16.0942 16.5736 16.0942 16.8574 15.9204 17.0348L16.2776 17.3847L16.6347 17.7346C17.1894 17.1684 17.1894 16.2625 16.6347 15.6963L16.2776 16.0462ZM16.2776 17.3847L15.9204 17.0348L11.0638 21.9922L11.421 22.3421L11.7782 22.692L16.6347 17.7346L16.2776 17.3847ZM11.421 22.3421L11.0638 21.9922C10.8957 22.1639 10.6351 22.1639 10.4669 21.9922L10.1097 22.3421L9.75256 22.692C10.3129 23.2639 11.2179 23.2639 11.7782 22.692L11.421 22.3421ZM24.076 10.7999H23.576C23.576 12.0796 22.5629 13.0989 21.3351 13.0989V13.5989V14.0989C23.1349 14.0989 24.576 12.612 24.576 10.7999H24.076ZM21.3351 13.5989V13.0989C20.1074 13.0989 19.0943 12.0796 19.0943 10.7999H18.5943H18.0943C18.0943 12.612 19.5354 14.0989 21.3351 14.0989V13.5989ZM18.5943 10.7999H19.0943C19.0943 9.52027 20.1074 8.50092 21.3351 8.50092V8.00092V7.50092C19.5354 7.50092 18.0943 8.98788 18.0943 10.7999H18.5943ZM21.3351 8.00092V8.50092C22.5629 8.50092 23.576 9.52027 23.576 10.7999H24.076H24.576C24.576 8.98788 23.1349 7.50092 21.3351 7.50092V8.00092ZM14.5044 19.1696L14.1628 19.5347C15.3589 20.6539 16.6289 21.5686 17.9946 22.3544L18.2439 21.921L18.4933 21.4876C17.1879 20.7365 15.981 19.8666 14.846 18.8045L14.5044 19.1696ZM10.5224 14.0139L10.0833 14.2529C10.8298 15.6245 11.7506 16.9455 12.8458 18.1651L13.2178 17.8311L13.5899 17.497C12.5482 16.3371 11.6721 15.0802 10.9616 13.7749L10.5224 14.0139ZM13.1935 20.5078L12.8547 20.8755C13.8731 21.8136 14.941 22.6248 16.0579 23.3342L16.326 22.9121L16.5941 22.49C15.5255 21.8113 14.5051 21.0362 13.5323 20.14L13.1935 20.5078ZM9.52679 15.9718L9.09985 16.232C9.79214 17.3677 10.5875 18.4851 11.5117 19.505L11.8822 19.1693L12.2527 18.8335C11.38 17.8705 10.6213 16.8067 9.95372 15.7115L9.52679 15.9718ZM25.9011 15.2655L26.2985 15.5688C29.6643 11.159 31.3412 6.01589 31.1525 1.32748L30.6529 1.3476L30.1533 1.36771C30.3316 5.7969 28.7448 10.7154 25.5036 14.9621L25.9011 15.2655ZM30.6529 1.3476L30.6738 0.848038C28.3884 0.752168 25.9991 1.1272 23.6445 1.94809L23.8091 2.42022L23.9737 2.89235C26.2204 2.10907 28.4839 1.75705 30.6319 1.84716L30.6529 1.3476ZM21.9305 3.17611L21.7227 2.72136C19.1032 3.91868 16.5703 5.67515 14.3185 7.96185L14.6748 8.31268L15.031 8.66351C17.1999 6.46107 19.6329 4.7761 22.1384 3.63086L21.9305 3.17611ZM24.8733 2.09133L24.4431 2.34616C25.0932 3.4436 25.847 4.44506 26.7551 5.34628L27.1073 4.99138L27.4595 4.63648C26.6192 3.80263 25.9161 2.87072 25.3034 1.8365L24.8733 2.09133ZM27.1073 4.99138L26.7501 5.34129C27.654 6.26392 28.6339 7.03338 29.6888 7.67429L29.9484 7.24698L30.208 6.81967C29.2231 6.22123 28.3089 5.50349 27.4645 4.64148L27.1073 4.99138ZM4.72244 23.2155L5.2212 23.1804C5.18369 22.6483 4.96239 21.7962 4.47699 21.1773C4.22807 20.8599 3.88656 20.5754 3.43763 20.4585C2.98113 20.3396 2.48389 20.4123 1.96586 20.6815L2.19639 21.1252L2.42691 21.5688C2.77374 21.3886 3.01652 21.3822 3.18561 21.4262C3.36227 21.4722 3.53191 21.5927 3.69013 21.7944C4.01899 22.2137 4.19586 22.8562 4.22368 23.2507L4.72244 23.2155ZM2.19639 21.1252L1.96586 20.6815C1.17519 21.0923 0.834726 21.7718 0.833499 22.4613C0.832334 23.1166 1.13484 23.7541 1.56375 24.1735L1.9133 23.816L2.26285 23.4585C2.00944 23.2107 1.83285 22.8253 1.8335 22.4631C1.83408 22.1353 1.97632 21.8029 2.42691 21.5688L2.19639 21.1252ZM4.15645 24.4609L4.55273 24.156C4.31758 23.8504 3.94745 23.7225 3.6217 23.6918C3.28429 23.66 2.91316 23.7218 2.57998 23.8815C2.24321 24.0428 1.92822 24.313 1.73986 24.7076C1.54986 25.1056 1.51083 25.5838 1.64664 26.1184L2.13125 25.9953L2.61586 25.8722C2.5274 25.524 2.5695 25.2909 2.64231 25.1384C2.71677 24.9824 2.84628 24.8627 3.012 24.7833C3.18129 24.7022 3.37063 24.6726 3.52793 24.6874C3.69691 24.7033 3.75577 24.7601 3.76016 24.7658L4.15645 24.4609ZM2.13125 25.9953L1.64664 26.1184C1.83342 26.8538 2.56914 27.2983 3.21322 27.5C3.87119 27.706 4.70086 27.7463 5.296 27.4087L5.04927 26.9738L4.80255 26.5389C4.54841 26.6831 4.04016 26.711 3.51198 26.5456C2.96991 26.3759 2.67127 26.0904 2.61586 25.8722L2.13125 25.9953ZM2.47145 28.8112L2.1142 29.1611C2.31921 29.3704 2.67529 29.6227 3.11969 29.7404C3.58198 29.8629 4.1429 29.8383 4.68886 29.4706L4.40954 29.0559L4.13021 28.6412C3.85738 28.8249 3.6017 28.8336 3.37585 28.7738C3.13212 28.7092 2.92855 28.5634 2.82869 28.4614L2.47145 28.8112ZM8.14173 28.3082L8.58634 28.0794C8.4396 27.7942 8.12893 27.3986 7.64646 27.2434C7.10587 27.0695 6.52144 27.2467 5.97706 27.8027L6.3343 28.1525L6.69154 28.5023C7.05305 28.1331 7.25982 28.1695 7.34022 28.1954C7.47875 28.2399 7.61885 28.3848 7.69713 28.5369L8.14173 28.3082ZM6.3343 28.1525L5.97706 27.8027C5.62408 28.1631 5.4397 28.5633 5.43588 28.978C5.43214 29.3842 5.60237 29.7293 5.81287 29.9883C6.02259 30.2464 6.29199 30.4453 6.54943 30.5734C6.6792 30.638 6.81571 30.6895 6.95061 30.7201C7.07889 30.7491 7.2392 30.7669 7.40082 30.731L7.29246 30.2429L7.18409 29.7548C7.2205 29.7467 7.22157 29.7561 7.17147 29.7448C7.12799 29.7349 7.06698 29.714 6.99498 29.6782C6.84888 29.6054 6.69773 29.4916 6.58897 29.3577C6.48099 29.2248 6.43481 29.0988 6.43584 28.9872C6.43679 28.8841 6.47834 28.72 6.69154 28.5023L6.3343 28.1525ZM9.77485 27.5743L9.65862 28.0606C9.9426 28.1284 10.3934 28.3125 10.7231 28.6058C11.0359 28.884 11.2023 29.2168 11.0961 29.6591L11.5823 29.7758L12.0685 29.8926C12.285 28.9909 11.8889 28.3045 11.3878 27.8587C10.9037 27.428 10.2894 27.1832 9.89108 27.088L9.77485 27.5743ZM11.5823 29.7758L11.0961 29.6591C11.0503 29.8497 10.968 29.9544 10.8812 30.0199C10.7872 30.0909 10.6528 30.1415 10.4733 30.1595C10.1019 30.197 9.65271 30.083 9.34536 29.9292L9.12154 30.3763L8.89773 30.8234C9.33078 31.0402 9.97038 31.2153 10.5735 31.1545C10.8813 31.1235 11.2055 31.0281 11.4837 30.8181C11.7692 30.6026 11.9727 30.2913 12.0685 29.8926L11.5823 29.7758ZM7.90163 23.3046L7.47053 23.0513C7.5021 22.9975 7.53609 22.9648 7.53801 22.9628C7.54679 22.954 7.55219 22.9495 7.55075 22.9508C7.54825 22.9529 7.53846 22.9609 7.51798 22.9762C7.47814 23.006 7.41807 23.0485 7.33902 23.1027C7.18215 23.2102 6.96731 23.3521 6.72751 23.5081C6.24881 23.8194 5.68171 24.1792 5.30552 24.4157L5.57156 24.839L5.83761 25.2623C6.21633 25.0243 6.78813 24.6615 7.27266 24.3464C7.51449 24.1891 7.73735 24.042 7.90431 23.9276C7.98718 23.8708 8.06056 23.8191 8.11695 23.777C8.14458 23.7563 8.17361 23.7338 8.19953 23.7117C8.2123 23.7008 8.22931 23.6858 8.24697 23.6681C8.25776 23.6572 8.29789 23.6171 8.33273 23.5579L7.90163 23.3046ZM9.33906 24.906L8.92102 24.6317L7.50556 26.7888L7.9236 27.0631L8.34163 27.3374L9.75709 25.1803L9.33906 24.906ZM16.4301 27.8873L15.9335 27.8291C15.8966 28.1435 15.849 28.4371 15.7894 28.7011L16.2771 28.8112L16.7648 28.9214C16.834 28.6153 16.8868 28.2858 16.9267 27.9455L16.4301 27.8873ZM16.2771 28.8112L16.4837 29.2666C16.9107 29.0728 17.3348 28.8442 17.7424 28.5749L17.4668 28.1577L17.1912 27.7406C16.8324 27.9776 16.4552 28.1814 16.0705 28.3559L16.2771 28.8112ZM16.4301 27.8873L16.3039 28.3711L17.3406 28.6415L17.4668 28.1577L17.593 27.6739L16.5563 27.4035L16.4301 27.8873ZM16.4844 27.3157L15.9858 27.2784C15.9717 27.4665 15.9544 27.6507 15.9335 27.8291L16.4301 27.8873L16.9267 27.9455C16.9494 27.7517 16.968 27.5535 16.983 27.3531L16.4844 27.3157ZM17.4668 28.1577L17.7424 28.5749C18.0286 28.3858 18.3069 28.1766 18.5725 27.945L18.2439 27.5681L17.9154 27.1912C17.6856 27.3915 17.443 27.5742 17.1912 27.7406L17.4668 28.1577ZM18.2439 27.5681L18.5725 27.945C18.7435 27.7959 18.9093 27.6376 19.0684 27.4695L18.7054 27.1257L18.3424 26.7819C18.206 26.926 18.0633 27.0623 17.9154 27.1912L18.2439 27.5681ZM16.4844 27.3157L16.4134 27.8107L18.173 28.0631L18.2439 27.5681L18.3149 27.0732L16.5554 26.8208L16.4844 27.3157ZM16.5218 26.6341L16.0222 26.6158C16.014 26.8395 16.0021 27.0613 15.9858 27.2784L16.4844 27.3157L16.983 27.3531C17.0003 27.1219 17.0129 26.8873 17.0215 26.6523L16.5218 26.6341ZM18.7054 27.1257L19.0626 27.4756C19.1267 27.4102 19.1896 27.3439 19.2513 27.2769L18.8833 26.9384L18.5153 26.5999C18.4607 26.6592 18.4051 26.7178 18.3482 26.7758L18.7054 27.1257ZM16.5218 26.6341L16.4579 27.13L18.8194 27.4343L18.8833 26.9384L18.9472 26.4425L16.5858 26.1382L16.5218 26.6341ZM18.8833 26.9384L19.2513 27.2769C19.4038 27.111 19.5487 26.9406 19.6857 26.766L19.2925 26.4572L18.8992 26.1484C18.7782 26.3025 18.6502 26.4532 18.5153 26.5999L18.8833 26.9384ZM16.5352 26.0513L16.0352 26.0463C16.0333 26.2361 16.0291 26.4265 16.0222 26.6158L16.5218 26.6341L17.0215 26.6523C17.0288 26.4534 17.0332 26.2541 17.0351 26.0562L16.5352 26.0513ZM19.2925 26.4572L19.3653 25.9625L16.608 25.5566L16.5352 26.0513L16.4623 26.5459L19.2197 26.9519L19.2925 26.4572ZM16.533 25.3962L16.033 25.4042C16.0364 25.6154 16.0373 25.8303 16.0352 26.0463L16.5352 26.0513L17.0351 26.0562C17.0373 25.8309 17.0364 25.6073 17.0329 25.3882L16.533 25.3962ZM19.2925 26.4572L19.6857 26.766C19.8709 26.5302 20.0419 26.2869 20.1987 26.0371L19.7752 25.7713L19.3518 25.5054C19.2135 25.7256 19.0627 25.9402 18.8992 26.1484L19.2925 26.4572ZM16.533 25.3962L16.4755 25.8929L19.7178 26.2679L19.7752 25.7713L19.8327 25.2746L16.5904 24.8995L16.533 25.3962ZM19.7752 25.7713L20.1987 26.0371C20.34 25.812 20.4697 25.5818 20.5879 25.3471L20.1413 25.1222L19.6948 24.8973C19.5906 25.1041 19.4763 25.307 19.3518 25.5054L19.7752 25.7713ZM16.5207 24.906L16.021 24.9228C16.0263 25.0802 16.0304 25.241 16.033 25.4042L16.533 25.3962L17.0329 25.3882C17.0302 25.2189 17.0259 25.0521 17.0205 24.8891L16.5207 24.906ZM20.1413 25.1222L20.1711 24.6231L16.5505 24.4069L16.5207 24.906L16.4909 25.4051L20.1115 25.6213L20.1413 25.1222ZM16.4844 24.261L15.9853 24.2914C16.0008 24.5446 16.0123 24.6635 16.021 24.9228L16.5207 24.906L17.0205 24.8891C17.0111 24.6118 16.9975 24.4611 16.9835 24.2306L16.4844 24.261ZM20.1413 25.1222L20.5879 25.3471C20.7041 25.1164 20.8091 24.8814 20.9029 24.643L20.4376 24.4599L19.9724 24.2769C19.8897 24.487 19.7972 24.694 19.6948 24.8973L20.1413 25.1222ZM16.4844 24.261L16.4593 24.7604L20.4125 24.9593L20.4376 24.4599L20.4628 23.9606L16.5095 23.7616L16.4844 24.261ZM20.4376 24.4599L20.9029 24.643C20.978 24.4521 21.046 24.259 21.1067 24.0641L20.6293 23.9153L20.152 23.7666C20.0984 23.9384 20.0385 24.1086 19.9724 24.2769L20.4376 24.4599ZM16.4546 23.8042L15.9559 23.839C15.9663 23.989 15.9762 24.1424 15.9853 24.2914L16.4844 24.261L16.9835 24.2306C16.9742 24.0791 16.9641 23.9227 16.9534 23.7694L16.4546 23.8042ZM20.6293 23.9153L20.6426 23.4155L16.468 23.3044L16.4546 23.8042L16.4413 24.304L20.616 24.4151L20.6293 23.9153ZM16.3742 22.8872L15.8781 22.9492C15.8909 23.0515 15.9045 23.188 15.9181 23.3473L16.4163 23.3046L16.9145 23.2618C16.9003 23.0973 16.8855 22.9461 16.8704 22.8252L16.3742 22.8872ZM16.4163 23.3046L15.9181 23.3473C15.931 23.498 15.9438 23.6659 15.9559 23.839L16.4546 23.8042L16.9534 23.7694C16.9411 23.5927 16.928 23.4194 16.9145 23.2618L16.4163 23.3046ZM20.6293 23.9153L21.1067 24.0641C21.1735 23.8497 21.2316 23.6332 21.281 23.415L20.7934 23.3046L20.3057 23.1941C20.2621 23.3866 20.2109 23.5776 20.152 23.7666L20.6293 23.9153ZM16.4163 23.3046V23.8046H20.7934V23.3046V22.8046H16.4163V23.3046ZM20.7934 23.3046L21.281 23.415C21.329 23.2033 21.3687 22.99 21.4004 22.7756L20.9057 22.7026L20.4111 22.6297C20.3831 22.819 20.348 23.0073 20.3057 23.1941L20.7934 23.3046ZM17.0726 22.57L16.857 22.1188C16.6311 22.2268 16.4043 22.3299 16.1765 22.428L16.3742 22.8872L16.572 23.3464C16.812 23.2431 17.0508 23.1346 17.2883 23.0211L17.0726 22.57ZM20.9057 22.7026L20.923 22.2029L17.0899 22.0703L17.0726 22.57L17.0554 23.0697L20.8884 23.2023L20.9057 22.7026ZM16.326 22.9121L16.5274 23.3697C17.0365 23.1457 17.5426 22.9002 18.0445 22.6336L17.8098 22.192L17.5752 21.7505C17.0949 22.0057 16.6109 22.2404 16.1246 22.4545L16.326 22.9121ZM17.8098 22.192L18.0445 22.6336C20.2114 21.4821 22.298 19.9349 24.1866 18.0072L23.8294 17.6573L23.4722 17.3074C21.654 19.1634 19.6496 20.6482 17.5752 21.7505L17.8098 22.192ZM20.9057 22.7026L21.4004 22.7756C21.4269 22.5955 21.4477 22.4147 21.4627 22.2333L20.9645 22.192L20.4662 22.1507C20.4529 22.3109 20.4345 22.4707 20.4111 22.6297L20.9057 22.7026ZM17.8098 22.192V22.692H20.9645V22.192V21.692H17.8098V22.192ZM20.9645 22.192L21.4627 22.2333C21.4776 22.0539 21.4869 21.874 21.4905 21.6939L20.9906 21.6838L20.4907 21.6738C20.4875 21.8331 20.4793 21.9922 20.4662 22.1507L20.9645 22.192ZM18.8833 21.5914L18.6249 21.1633C18.0422 21.5151 17.4529 21.834 16.857 22.1188L17.0726 22.57L17.2883 23.0211C17.9148 22.7216 18.5326 22.3871 19.1417 22.0194L18.8833 21.5914ZM20.9906 21.6838L21.0125 21.1843L18.9052 21.0919L18.8833 21.5914L18.8614 22.0909L20.9687 22.1834L20.9906 21.6838ZM20.8909 20.235L20.5912 19.8347C20.2692 20.0758 19.945 20.3068 19.6187 20.5274L19.8988 20.9416L20.1789 21.3558C20.5189 21.1259 20.8561 20.8856 21.1905 20.6353L20.8909 20.235ZM19.8988 20.9416L19.6187 20.5274C19.2896 20.75 18.9583 20.962 18.6249 21.1633L18.8833 21.5914L19.1417 22.0194C19.4903 21.809 19.836 21.5877 20.1789 21.3558L19.8988 20.9416ZM20.9906 21.6838L21.4905 21.6939C21.4957 21.4316 21.4891 21.1688 21.4705 20.9063L20.9717 20.9416L20.473 20.977C20.4894 21.2093 20.4953 21.4418 20.4907 21.6738L20.9906 21.6838ZM20.9717 20.9416L21.4705 20.9063C21.4527 20.6559 21.4241 20.4059 21.3847 20.1568L20.8909 20.235L20.397 20.3132C20.432 20.5339 20.4573 20.7553 20.473 20.977L20.9717 20.9416ZM19.8988 20.9416V21.4416H20.9717V20.9416V20.4416H19.8988V20.9416ZM4.19673 15.1961L3.7625 14.9482C3.59493 15.2417 3.44572 15.5419 3.31301 15.8467L3.77144 16.0463L4.22987 16.2459C4.34898 15.9723 4.4822 15.7046 4.63096 15.444L4.19673 15.1961ZM3.77144 16.0463L3.86457 16.5375C4.30342 16.4544 4.76199 16.3898 5.23808 16.3449L5.1912 15.8471L5.14431 15.3493C4.63874 15.3969 4.14926 15.4658 3.67832 15.555L3.77144 16.0463ZM4.19673 15.1961L3.92286 15.6144L4.91733 16.2655L5.1912 15.8471L5.46506 15.4288L4.4706 14.7777L4.19673 15.1961ZM4.60824 14.5473L4.19916 14.2598C4.04136 14.4843 3.89611 14.7141 3.7625 14.9482L4.19673 15.1961L4.63096 15.444C4.74957 15.2362 4.8781 15.0329 5.01731 14.8348L4.60824 14.5473ZM5.1912 15.8471L5.23808 16.3449C5.51179 16.3191 5.79122 16.2999 6.07595 16.2874L6.05401 15.7879L6.03208 15.2884C5.73108 15.3016 5.435 15.322 5.14431 15.3493L5.1912 15.8471ZM4.60824 14.5473L4.28264 14.9268L5.72842 16.1673L6.05401 15.7879L6.37961 15.4084L4.93384 14.1679L4.60824 14.5473ZM5.42268 13.5676L5.06551 13.2177C4.91424 13.3721 4.77084 13.5306 4.63494 13.6926L5.01804 14.0139L5.40114 14.3352C5.52069 14.1927 5.6468 14.0533 5.77984 13.9175L5.42268 13.5676ZM5.01804 14.0139L4.63494 13.6926C4.48006 13.8773 4.33499 14.0665 4.19916 14.2598L4.60824 14.5473L5.01731 14.8348C5.13713 14.6643 5.2649 14.4976 5.40114 14.3352L5.01804 14.0139ZM6.05401 15.7879L6.07595 16.2874C6.34077 16.2758 6.61014 16.27 6.88371 16.2702L6.88408 15.7702L6.88445 15.2702C6.59628 15.27 6.31203 15.2761 6.03208 15.2884L6.05401 15.7879ZM5.01804 14.0139L4.67536 14.378L6.5414 16.1343L6.88408 15.7702L7.22677 15.4061L5.36073 13.6498L5.01804 14.0139ZM6.88408 15.7702L6.88371 16.2702C7.09773 16.2703 7.3143 16.2742 7.53326 16.2817L7.55055 15.782L7.56783 15.2823C7.33774 15.2744 7.10988 15.2703 6.88445 15.2702L6.88408 15.7702ZM7.55055 15.782L7.91107 15.4356L5.78321 13.2212L5.42268 13.5676L5.06215 13.9141L7.19002 16.1285L7.55055 15.782ZM5.8395 13.1714L5.50825 12.7969C5.35693 12.9307 5.20923 13.071 5.06551 13.2177L5.42268 13.5676L5.77984 13.9175C5.9069 13.7878 6.0373 13.664 6.17074 13.546L5.8395 13.1714ZM7.55055 15.782L7.53326 16.2817C7.78709 16.2905 8.04413 16.3043 8.3041 16.3233L8.34048 15.8246L8.37687 15.3259C8.10434 15.3061 7.83457 15.2916 7.56783 15.2823L7.55055 15.782ZM5.8395 13.1714L5.47566 13.5144L7.97665 16.1676L8.34048 15.8246L8.70432 15.4817L6.20333 12.8285L5.8395 13.1714ZM8.34048 15.8246L8.3041 16.3233C8.49315 16.3371 8.68376 16.3536 8.87581 16.3729L8.92577 15.8754L8.97573 15.3779C8.77471 15.3577 8.57506 15.3404 8.37687 15.3259L8.34048 15.8246ZM8.92577 15.8754L8.87581 16.3729C9.0779 16.3932 9.2816 16.4166 9.48677 16.443L9.55077 15.9471L9.61477 15.4513C9.40032 15.4236 9.18727 15.3991 8.97573 15.3779L8.92577 15.8754ZM6.30342 12.7914L6.00155 12.3929C5.83332 12.5203 5.66875 12.6549 5.50825 12.7969L5.8395 13.1714L6.17074 13.546C6.31228 13.4208 6.45725 13.3022 6.60528 13.19L6.30342 12.7914ZM8.92577 15.8754L9.30668 15.5515L6.68433 12.4676L6.30342 12.7914L5.92251 13.1153L8.54486 16.1993L8.92577 15.8754ZM6.88408 12.3917L6.61954 11.9674C6.40882 12.0988 6.20259 12.2406 6.00155 12.3929L6.30342 12.7914L6.60528 13.19C6.7822 13.0561 6.96352 12.9314 7.14863 12.816L6.88408 12.3917ZM6.88408 12.3917L6.48181 12.6886L9.12451 16.2687L9.52679 15.9718L9.92906 15.6748L7.28636 12.0947L6.88408 12.3917ZM9.83911 15.2771L9.38625 15.0652C9.27602 15.3007 9.16985 15.5369 9.06769 15.7737L9.52679 15.9718L9.98589 16.1699C10.084 15.9424 10.186 15.7154 10.292 15.4891L9.83911 15.2771ZM7.46526 12.0634L7.23847 11.6178C7.02846 11.7246 6.82194 11.8412 6.61954 11.9674L6.88408 12.3917L7.14863 12.816C7.32643 12.7051 7.50776 12.6028 7.69205 12.509L7.46526 12.0634ZM9.83911 15.2771L10.2413 14.9801L7.86744 11.7663L7.46526 12.0634L7.06308 12.3604L9.43693 15.5742L9.83911 15.2771ZM7.99249 11.8198L7.80016 11.3582C7.61053 11.4373 7.42316 11.5238 7.23847 11.6178L7.46526 12.0634L7.69205 12.509C7.85413 12.4265 8.01851 12.3506 8.18483 12.2813L7.99249 11.8198ZM9.55077 15.9471L10.0103 16.1441C10.1871 15.7318 10.3772 15.3211 10.5808 14.9135L10.1335 14.6901L9.68618 14.4667C9.47387 14.8918 9.27555 15.3201 9.0912 15.7502L9.55077 15.9471ZM7.99249 11.8198L7.59171 12.1187L9.73271 14.989L10.1335 14.6901L10.5343 14.3911L8.39328 11.5208L7.99249 11.8198ZM10.1335 14.6901L10.5808 14.9135C10.6674 14.74 10.7565 14.5672 10.848 14.3949L10.4064 14.1604L9.96481 13.9258C9.8694 14.1055 9.77652 14.2858 9.68618 14.4667L10.1335 14.6901ZM8.50337 11.628L8.34451 11.1539C8.16129 11.2153 7.97972 11.2834 7.80016 11.3582L7.99249 11.8198L8.18483 12.2813C8.34232 12.2156 8.50156 12.1559 8.66223 12.1021L8.50337 11.628ZM10.4064 14.1604L10.8061 13.86L8.90309 11.3276L8.50337 11.628L8.10365 11.9284L10.0067 14.4608L10.4064 14.1604ZM9.03591 11.4709L8.912 10.9865C8.72137 11.0352 8.53208 11.091 8.34451 11.1539L8.50337 11.628L8.66223 12.1021C8.8267 12.047 8.99268 11.998 9.15982 11.9553L9.03591 11.4709ZM10.4064 14.1604L10.848 14.3949C10.9323 14.2361 11.0188 14.0778 11.1073 13.9201L10.6713 13.6753L10.2353 13.4306C10.143 13.595 10.0528 13.7601 9.96481 13.9258L10.4064 14.1604ZM10.6713 13.6753L11.1073 13.9201C11.5465 13.1378 12.0365 12.3717 12.577 11.6318L12.1733 11.3368L11.7696 11.0418C11.2049 11.8148 10.6935 12.6145 10.2353 13.4306L10.6713 13.6753ZM9.03591 11.4709L8.63435 11.7688L10.2698 13.9732L10.6713 13.6753L11.0729 13.3774L9.43747 11.173L9.03591 11.4709ZM11.0047 13.0778L10.5751 12.8221C10.1363 13.5593 9.74036 14.3086 9.38625 15.0652L9.83911 15.2771L10.292 15.4891C10.6322 14.7621 11.0127 14.0421 11.4344 13.3336L11.0047 13.0778ZM9.67197 11.3368L9.58983 10.8436C9.36246 10.8815 9.13631 10.9291 8.912 10.9865L9.03591 11.4709L9.15982 11.9553C9.35649 11.905 9.55477 11.8632 9.75412 11.83L9.67197 11.3368ZM11.0047 13.0778L11.4018 12.7739L10.069 11.0329L9.67197 11.3368L9.27495 11.6407L10.6077 13.3818L11.0047 13.0778ZM10.1335 11.2744L10.0817 10.7771C9.91724 10.7942 9.75322 10.8164 9.58983 10.8436L9.67197 11.3368L9.75412 11.83C9.89738 11.8062 10.0412 11.7867 10.1853 11.7717L10.1335 11.2744ZM11.2837 12.6202L10.8596 12.3554C10.7628 12.5104 10.668 12.666 10.5751 12.8221L11.0047 13.0778L11.4344 13.3336C11.5237 13.1835 11.6148 13.034 11.7078 12.8851L11.2837 12.6202ZM10.1335 11.2744L9.7534 11.5992L10.9036 12.9451L11.2837 12.6202L11.6638 12.2954L10.5136 10.9495L10.1335 11.2744ZM14.6748 8.31268L14.3176 7.96278C13.0936 9.21219 12.0337 10.5457 11.131 11.9301L11.5498 12.2032L11.9687 12.4763C12.8362 11.1458 13.855 9.86396 15.0319 8.66258L14.6748 8.31268ZM11.5498 12.2032L11.131 11.9301C11.0389 12.0714 10.9485 12.2132 10.8596 12.3554L11.2837 12.6202L11.7078 12.8851C11.7932 12.7483 11.8802 12.6121 11.9687 12.4763L11.5498 12.2032ZM12.1733 11.3368L12.2555 10.8436C11.7704 10.7628 11.2797 10.7264 10.7895 10.7344L10.7977 11.2344L10.8059 11.7343C11.2357 11.7272 11.6659 11.7592 12.0911 11.83L12.1733 11.3368ZM10.7977 11.2344L10.7895 10.7344C10.5532 10.7383 10.317 10.7525 10.0817 10.7771L10.1335 11.2744L10.1853 11.7717C10.3917 11.7502 10.5988 11.7377 10.8059 11.7343L10.7977 11.2344ZM11.5498 12.2032L11.9448 11.8966L11.1927 10.9278L10.7977 11.2344L10.4028 11.541L11.1549 12.5098L11.5498 12.2032Z" fill="black"/>
</svg>
