<svg width="20" height="20" viewBox="0 0 20 20" fill="none" xmlns="http://www.w3.org/2000/svg">
<path d="M0.833496 1.66669H1.91711C2.72898 1.66669 3.42919 2.22185 3.59358 2.99588L5.50677 12.0042C5.67116 12.7782 6.37137 13.3334 7.18323 13.3334H13.6729M5.29351 10.0667H16.3567C17.1372 10.0667 17.8189 9.55275 18.0142 8.81708L19.1115 4.68375C19.3916 3.62866 18.5734 2.60002 17.454 2.60002H6.82523M15.3848 13.3334H17.0968M6.506 18.3212C6.58142 18.3104 8.40723 18.0753 8.33118 16.4358C8.3242 16.2852 8.30473 16.1482 8.27448 16.024C8.23661 15.8685 8.18183 15.733 8.11345 15.6161C7.5529 14.6577 6.07871 14.944 5.51736 15.6161C5.29708 15.8801 4.83544 16.5495 5.06041 17.3862C5.20144 17.9108 5.65897 18.2453 6.13653 18.3183C6.26005 18.3371 6.38492 18.3385 6.506 18.3212ZM14.8393 18.3212C14.9147 18.3104 16.7406 18.0753 16.6645 16.4358C16.6575 16.2852 16.6381 16.1482 16.6078 16.024C16.5699 15.8685 16.5152 15.733 16.4468 15.6161C15.8862 14.6577 14.412 14.944 13.8507 15.6161C13.6304 15.8801 13.1688 16.5495 13.3937 17.3862C13.5348 17.9108 13.9923 18.2453 14.4699 18.3183C14.5934 18.3371 14.7183 18.3385 14.8393 18.3212Z" stroke="black" stroke-linecap="round"/>
</svg>
