<svg width="32" height="32" viewBox="0 0 32 32" fill="none" xmlns="http://www.w3.org/2000/svg">
<path d="M1.3335 23.1227C4.45958 17.8738 6.48635 7.84668 7.17669 3.01883C7.20516 2.81972 7.38307 2.67923 7.58831 2.69506C13.1565 3.12448 24.6926 3.6816 29.1001 2.66663M8.72112 6.67876C9.00004 6.76955 9.78101 6.95111 10.6735 6.95111M12.626 7.22346C13.0908 7.31424 14.0763 7.44134 14.2995 7.22346M16.2519 7.22346H17.9254M20.1568 7.22346C20.6216 7.31424 21.6071 7.44134 21.8303 7.22346M24.0616 7.22346H25.7351M28.9654 4.40697C28.3184 9.73326 26.7677 21.1109 25.6388 24.9111C25.5938 25.0626 25.4601 25.1631 25.2988 25.1709C20.0716 25.4256 8.85756 25.659 3.72799 24.639M30.6668 7.26021C30.5744 12.9243 30.1205 25.0191 29.0401 29.0458C28.9974 29.2052 28.8506 29.3097 28.6819 29.312M30.6668 7.26021C30.3833 14.0934 29.5893 28.0703 28.6819 29.312M30.6668 7.26021C30.2887 14.3553 29.3057 28.6994 28.3983 29.3157M30.6668 7.26021C30.1942 14.4439 29.0221 28.9128 28.1147 29.319M30.6668 7.26021C30.0997 14.4458 28.7386 28.9181 27.8312 29.3219M30.6668 7.26021C30.0052 14.4475 28.455 28.9227 27.5476 29.3245M30.6668 7.26021C29.903 14.4484 28.1791 28.9249 27.3943 29.3257M30.6668 7.26021C30.648 7.40487 30.6288 7.55243 30.6092 7.70272M30.6668 7.26021C30.6071 7.66929 30.5438 8.10153 30.4774 8.55306M30.6668 7.26021C30.4585 8.52295 30.213 10.0062 29.9486 11.5965M30.6668 7.26021L28.3193 20.3109M30.6668 7.26021C30.6541 7.37694 30.6347 7.52542 30.6092 7.70272M28.6819 29.312L28.3983 29.3157M28.3983 29.3157L28.1147 29.319M28.1147 29.319L27.8312 29.3219M27.8312 29.3219L27.5476 29.3245M27.5476 29.3245L27.3943 29.3257M27.3943 29.3257L27.264 29.3267M27.264 29.3267C27.7087 29.138 29.6425 15.1104 30.6092 7.70272M27.264 29.3267L27.0887 29.3279M30.6092 7.70272C30.5755 7.93776 30.5311 8.22346 30.4774 8.55306M27.0887 29.3279C27.3846 29.1471 29.363 16.1325 30.4774 8.55306M27.0887 29.3279L26.8812 29.3291M30.4774 8.55306C30.3484 9.34533 30.1658 10.3912 29.9486 11.5965M26.8812 29.3291C27.0031 29.1716 28.6893 19.1707 29.9486 11.5965M26.8812 29.3291L26.6969 29.3301M29.9486 11.5965C29.4981 14.0955 28.8987 17.28 28.3193 20.3109M26.6969 29.3301C20.5113 29.3606 10.6138 29.185 7.41436 28.2704M26.6969 29.3301L26.7248 29.175M7.41436 28.2704C12.7262 28.787 24.0249 29.6913 26.7248 29.175M7.41436 28.2704C20.345 29.3079 25.7052 29.1421 26.769 28.9295M7.41436 28.2704C7.3315 28.2199 7.23533 28.1598 7.13079 28.0926M26.7248 29.175L26.769 28.9295M26.769 28.9295L26.8146 28.6756M7.13079 28.0926C13.0919 28.5441 25.3741 29.2927 26.8146 28.6756M7.13079 28.0926C7.04136 28.0352 6.94581 27.9726 6.84723 27.9066M7.13079 28.0926C19.154 28.9879 25.2852 28.731 26.8479 28.4905M26.8146 28.6756L26.8479 28.4905M6.84723 27.9066C21.8196 28.8605 26.4417 28.57 26.8812 28.3055M6.84723 27.9066C20.0047 28.653 25.711 28.3416 26.9195 28.0926M6.84723 27.9066C6.75452 27.8444 6.65914 27.7792 6.56366 27.7122M26.8812 28.3055L26.8479 28.4905M26.8812 28.3055L26.9195 28.0926M26.9195 28.0926L26.9387 27.986M26.9195 28.0926L8.55737 27.7669C8.46953 27.7653 8.45658 27.8898 8.54294 27.9055C8.54672 27.9062 8.55056 27.9066 8.55441 27.9067L24.7119 28.2704M26.9578 27.8794L6.28009 27.5077M26.9578 27.8794L26.9913 27.6936M26.9578 27.8794L26.9387 27.986M6.28009 27.5077C6.2252 27.4669 6.17116 27.426 6.11852 27.3852M6.28009 27.5077L26.9913 27.6936M6.28009 27.5077C6.373 27.5767 6.46838 27.6453 6.56366 27.7122M6.11852 27.3852L27.0247 27.5077M6.11852 27.3852C6.0525 27.334 5.98867 27.2831 5.92807 27.2329M28.3193 20.3109L27.0247 27.5077M28.3193 20.3109C27.8552 22.738 27.404 25.0667 27.0522 26.8662M27.0247 27.5077L26.9913 27.6936M5.92807 27.2329L16.2685 27.2595M5.92807 27.2329C5.87606 27.1898 5.82644 27.1473 5.77985 27.1056M16.2685 27.2595C17.5803 27.3034 18.8904 27.3376 20.1473 27.3572M16.2685 27.2595C14.9695 27.2161 13.6689 27.1631 12.4166 27.1056M20.1473 27.3572C21.8455 27.3837 23.4465 27.3834 24.8234 27.3441M20.1473 27.3572C14.6967 27.1875 7.84485 26.5558 6.69255 26.3127C5.17051 25.9916 5.21626 26.4465 5.42939 26.7141M20.1473 27.3572C21.9426 27.4131 23.5858 27.4189 24.8234 27.3441M24.8234 27.3441C25.5054 27.3247 26.1325 27.2956 26.6891 27.2554C26.8619 27.243 27.003 27.118 27.0355 26.9518L27.0522 26.8662M24.8234 27.3441C26.0323 27.2711 26.854 27.1213 27.0522 26.8662M12.4166 27.1056H5.77985M12.4166 27.1056C10.7714 27.0301 9.20965 26.9466 7.84462 26.8662M5.77985 27.1056C5.69506 27.0299 5.62035 26.9571 5.55969 26.8894M5.55969 26.8894C5.50281 26.826 5.45828 26.7669 5.42939 26.7141M5.55969 26.8894L7.84462 26.8662M5.42939 26.7141C6.12679 26.7613 6.94276 26.8131 7.84462 26.8662M6.56366 27.7122L26.9387 27.986" stroke="black" stroke-linecap="round"/>
</svg>
