<svg width="32" height="32" viewBox="0 0 32 32" fill="none" xmlns="http://www.w3.org/2000/svg">
<path d="M12.8527 10.7508C15.8929 10.3302 22.6453 9.86744 25.3335 11.3818M7.12101 12.0211C8.314 12.2269 10.0162 12.1041 10.0162 11.3818V9.8179C10.0162 9.72533 10.0038 9.64075 9.97648 9.56907M7.12101 12.0211C6.82966 11.9708 6.6625 11.6972 6.68117 11.4254C6.71056 10.9975 6.6926 10.4577 6.66767 10.0288C6.64685 9.67045 7.01578 9.35507 7.40612 9.36666C8.10367 9.38738 9.0234 9.36029 9.58303 9.33403C9.79532 9.32408 9.91893 9.41784 9.97648 9.56907M7.12101 12.0211C8.00166 12.3074 9.86169 12.5805 10.2566 11.3818C10.2942 10.8561 10.2909 9.75768 9.97648 9.56907M12.8527 15.9633C15.8929 15.5427 22.6453 15.0799 25.3335 16.5943M7.12101 17.2336C8.314 17.4394 10.0162 17.3166 10.0162 16.5943V15.0304C10.0162 14.9378 10.0038 14.8533 9.97648 14.7816M7.12101 17.2336C6.82966 17.1833 6.6625 16.9097 6.68117 16.6379C6.71056 16.21 6.6926 15.6702 6.66767 15.2413C6.64685 14.883 7.01578 14.5676 7.40612 14.5792C8.10367 14.5999 9.0234 14.5728 9.58303 14.5465C9.79532 14.5366 9.91893 14.6303 9.97648 14.7816M7.12101 17.2336C7.94184 17.534 9.70016 17.9149 10.1668 17.0347C10.2344 16.6328 10.2909 15.6195 9.97648 14.7816M12.8527 21.1758C15.8929 20.7552 22.6453 20.2924 25.3335 21.8068M7.12101 22.4461C8.314 22.6519 10.0162 22.5291 10.0162 21.8068V20.2429C10.0162 20.1503 10.0038 20.0658 9.97648 19.9941M7.12101 22.4461C6.82966 22.3958 6.6625 22.1223 6.68117 21.8504C6.71056 21.4225 6.6926 20.8827 6.66767 20.4538C6.64685 20.0955 7.01578 19.7801 7.40612 19.7917C8.10367 19.8124 9.0234 19.7853 9.58303 19.759C9.79532 19.7491 9.91893 19.8428 9.97648 19.9941M7.12101 22.4461C7.94184 22.6593 10.1668 22.9697 10.1668 21.9856C10.1668 20.8854 9.97648 19.9941 9.97648 19.9941M28.1877 1.98967C23.2404 1.02019 7.786 1.21419 3.3335 1.98978M30.0429 2.95927C30.3169 11.2638 30.7949 26.0584 30.6342 30.6665M29.3335 30.6666C27.4501 28.7753 9.92743 28.3023 6.16072 28.3023C2.39401 28.3023 1.42591 28.9078 1.92317 26.411C2.33161 24.3601 2.0342 11.042 1.3335 2.50649" stroke="black" stroke-linecap="round"/>
</svg>
